<?xml version="1.0" encoding="utf-8"?>
<!-- Generator: Adobe Illustrator 22.0.0, SVG Export Plug-In . SVG Version: 6.00 Build 0)  -->
<svg version="1.1" id="Layer_1" xmlns="http://www.w3.org/2000/svg" xmlns:xlink="http://www.w3.org/1999/xlink" x="0px" y="0px"
	 viewBox="0 0 1000 1000" style="enable-background:new 0 0 1000 1000;" xml:space="preserve">
<style type="text/css">
	.st0{fill:#E6EFFF;}
	.st1{fill:#CFE5FF;}
	.st2{fill:#B9D3ED;}
	.st3{fill:#6EA1CE;}
	.st4{fill:#6A96CC;}
	.st5{fill:#9CBFF2;}
	.st6{fill:none;stroke:#9CBFF2;stroke-width:1.5;stroke-miterlimit:10;}
	.st7{fill:#1B4796;}
	.st8{fill:#3960B7;}
	.st9{opacity:0.35;}
	.st10{fill:#FFFFFF;}
	.st11{opacity:0.25;}
	.st12{fill:#FCA70C;}
	.st13{fill:#B1AFFD;}
	.st14{opacity:0.15;}
	.st15{opacity:0.26;enable-background:new    ;}
	.st16{opacity:0.62;}
	.st17{fill:#D5DBDA;}
	.st18{fill:#EFEFEF;}
	.st19{fill:#B1C9FC;}
	.st20{fill:#61C668;}
	.st21{fill:#79A1E0;}
	.st22{fill:#CFCFFF;}
	.st23{opacity:0.55;fill:#A3D8EF;enable-background:new    ;}
	.st24{fill:#89ABE5;}
	.st25{fill:#C7DEFF;}
	.st26{opacity:0.35;fill:#5270BA;enable-background:new    ;}
	.st27{fill:#5270BA;}
	.st28{opacity:0.35;fill:#5269BA;enable-background:new    ;}
	.st29{fill:#D4E2FF;}
	.st30{fill:#9EBBEF;}
	.st31{opacity:0.45;}
	.st32{fill:#E2DEFF;}
	.st33{fill:#30AA33;}
	.st34{opacity:0.35;fill:#527BBA;enable-background:new    ;}
	.st35{fill:#5851BC;}
	.st36{fill:#4557AD;}
	.st37{fill:#FFB9B0;}
	.st38{fill:#648BED;}
	.st39{fill:#4D77BA;}
	.st40{fill:#455EAD;}
	.st41{fill:#F2F2F2;}
	.st42{fill:#85A0ED;}
	.st43{fill:#C3D2F4;}
	.st44{fill:#A5BDE5;}
	.st45{fill:#C3CEF4;}
	.st46{fill:#A4C4F4;}
	.st47{fill:#85AAED;}
	.st48{fill:none;stroke:#C3CEF4;stroke-width:0.75;stroke-linecap:round;stroke-linejoin:round;stroke-miterlimit:10;}
	.st49{fill:#ED9C80;}
	.st50{fill:#3B6B9B;}
	.st51{fill:#304284;}
	.st52{fill:#203266;}
	.st53{opacity:0.25;fill:#31AA31;enable-background:new    ;}
	.st54{fill:#608CCC;}
	.st55{fill:#2BAF2E;}
	.st56{opacity:0.45;fill:none;stroke:#608CCC;stroke-miterlimit:10;enable-background:new    ;}
	.st57{fill:#483A99;}
	.st58{fill:#3C5999;}
	.st59{opacity:0.45;fill:#FFFFFF;enable-background:new    ;}
	.st60{fill:#B3CBF4;}
	.st61{fill:#F2A181;}
	.st62{fill:#5E5DBB;}
	.st63{fill:#B4B4DB;}
	.st64{fill:#7494CE;}
	.st65{fill:#5377AA;}
	.st66{fill:#1D2E59;}
	.st67{fill:#FFBE9D;}
	.st68{fill:#E9F4FF;}
	.st69{fill:#BDC9F4;}
	.st70{fill:#2F4077;}
	.st71{opacity:0.3;}
	.st72{fill:#FEFEFE;}
</style>
<g>
	<g>
		<path class="st0" d="M983.8,578.6c-17-47.3-43.7-61.7-69.1-92c-31-37-52-64-43.9-111.6c13.2-77.9,18.8-272.1-187.3-246.7
			c-73.9,9.1-132.3,65.7-174.7,122.2c-36.1,48.1-101.2,52.3-153.5,63.5C291,327.8,225.5,348.6,166,379.1
			C43.5,441.9,6.9,532.2,11.9,647.7c1.5,34.9,6.4,89.9,65.4,154.2c79.6,86.8,195.2,98.4,334.3,58.6c31.9-9.1,62-23.4,93.3-34.2
			c32.6-11.2,66.4-18.5,100.7-21.9c79.9-7.7,162.8,6.2,239.4-17.6c40.5-12.6,77.8-35.7,107.1-66.4
			C988.7,682,1001.7,628.5,983.8,578.6z"/>
	</g>
	<g>
		<path class="st1" d="M77.3,756.7c0,11.4,144.7,20.7,323.3,20.7c178.5,0,323.3-9.3,323.3-20.7S579.2,736,400.6,736
			C222,736.1,77.3,745.3,77.3,756.7z"/>
	</g>
	<path class="st1" d="M274.6,782.3c0,7.1-36.7,12.9-82.1,12.9c-45.3,0-82.1-5.8-82.1-12.9c0-7.1,36.7-12.9,82.1-12.9
		C237.8,769.3,274.6,775.1,274.6,782.3z"/>
	<ellipse class="st1" cx="820.6" cy="784.9" rx="137.7" ry="10.2"/>
	<g>
		<polygon class="st2" points="109.6,614.8 104.3,688.9 174.9,688.9 170.1,614.7 		"/>
		<g>
			<g>
				<path class="st3" d="M123.6,621.3L123.6,621.3c0-1.1,1.1-2.1,2.4-2.1l0,0c1.3,0,2.4,0.9,2.4,2s-1.1,2.1-2.4,2.1l0,0
					C124.7,623.4,123.6,622.5,123.6,621.3z M126,620.1c-0.9,0-1.6,0.6-1.6,1.3s0.7,1.3,1.6,1.3l0,0c0.9,0,1.6-0.6,1.6-1.3
					C127.6,620.6,126.9,620.1,126,620.1L126,620.1z M124,621.3L124,621.3L124,621.3z"/>
			</g>
			<g>
				<path class="st3" d="M147.7,621.3h0.4H147.7c0-0.5,0.2-1,0.6-1.3c0.5-0.5,1.1-0.7,1.8-0.7l0,0c1.3,0,2.4,0.9,2.4,2
					c0,0.6-0.3,1.1-0.7,1.5c-0.5,0.4-1,0.6-1.7,0.6l0,0C148.8,623.3,147.7,622.4,147.7,621.3z M150.1,620c-0.5,0-1,0.2-1.3,0.5
					c-0.2,0.2-0.3,0.4-0.3,0.8l0,0c0,0.7,0.7,1.3,1.6,1.3l0,0c0.5,0,0.9-0.1,1.2-0.4c0.3-0.2,0.4-0.5,0.4-0.9
					C151.7,620.6,151,620,150.1,620L150.1,620z"/>
			</g>
			<path class="st3" d="M137.3,636.2c0.2,0,0.5,0,0.7,0c4.4-0.1,7.8-1.6,10-4.2c3.7-4.4,2.9-10.6,2.8-10.8c-0.1-0.4-0.5-0.7-0.9-0.7
				c-0.4,0.1-0.7,0.5-0.7,0.9c0,0.1,0.8,5.7-2.5,9.6c-1.9,2.3-4.9,3.5-8.9,3.7c-3.8,0.1-6.7-0.9-8.6-3c-3.4-3.8-2.6-10.2-2.6-10.2
				c0.1-0.4-0.2-0.8-0.7-0.9c-0.4-0.1-0.8,0.2-0.9,0.7c0,0.3-1,7.1,3,11.5C130.3,635,133.4,636.2,137.3,636.2z"/>
		</g>
		<polygon class="st2" points="142.8,635.6 134.4,690.7 211.1,690.5 203.3,635.5 		"/>
		<g>
			<path class="st4" d="M114.4,728.6c-8.6,0-15.6,7-15.6,15.6s7,15.6,15.6,15.6s15.6-7,15.6-15.6C129.9,735.5,123,728.6,114.4,728.6
				z M114.4,751.3c-4,0-7.2-3.2-7.2-7.2s3.2-7.2,7.2-7.2s7.3,3.2,7.3,7.2C121.6,748.1,118.4,751.3,114.4,751.3z"/>
			<path class="st5" d="M111.8,728.6c-8.6,0-15.6,7-15.6,15.6s7,15.6,15.6,15.6s15.6-7,15.6-15.6
				C127.4,735.5,120.4,728.6,111.8,728.6z M111.8,751.3c-4,0-7.2-3.2-7.2-7.2s3.2-7.2,7.2-7.2s7.3,3.2,7.3,7.2
				C119.1,748.1,115.8,751.3,111.8,751.3z"/>
			<path class="st4" d="M202.3,728.6c-8.6,0-15.6,7-15.6,15.6s7,15.6,15.6,15.6s15.6-7,15.6-15.6
				C217.8,735.5,210.9,728.6,202.3,728.6z M202.3,751.3c-4,0-7.2-3.2-7.2-7.2s3.2-7.2,7.2-7.2s7.3,3.2,7.3,7.2
				C209.5,748.1,206.3,751.3,202.3,751.3z"/>
			<path class="st5" d="M199.7,728.6c-8.6,0-15.6,7-15.6,15.6s7,15.6,15.6,15.6s15.6-7,15.6-15.6
				C215.3,735.5,208.3,728.6,199.7,728.6z M199.7,751.3c-4,0-7.2-3.2-7.2-7.2s3.2-7.2,7.2-7.2s7.3,3.2,7.3,7.2
				S203.7,751.3,199.7,751.3z"/>
			<g>
				<path class="st6" d="M319.7,553.9H273c-4.9,0-9.5,2.5-12.1,6.7L232.6,606"/>
				<path class="st6" d="M107,689.4h104.5c5.6,0,10.3-4,11.2-9.5l10.8-67.4c1.1-6.9-4.2-13.1-11.2-13.1H96.2
					c-7,0-12.3,6.2-11.2,13.1l10.8,67.4C96.7,685.4,101.5,689.4,107,689.4z"/>
				<line class="st6" x1="159.2" y1="599.3" x2="159.2" y2="689.4"/>
				<line class="st6" x1="228.4" y1="644.4" x2="90.1" y2="644.4"/>
				<line class="st6" x1="200.5" y1="599.3" x2="191.6" y2="689.4"/>
				<line class="st6" x1="120.1" y1="599.3" x2="128.3" y2="689.4"/>
				<path class="st6" d="M220.2,685.3l16.9,25.2c4.6,6.8-0.3,16.1-8.6,16.1H90.1"/>
			</g>
		</g>
	</g>
	<g>
		<rect x="440.7" y="697.2" class="st7" width="143.3" height="38.5"/>
		<path class="st8" d="M752,709.8H274c-5.2,0-9.4-4.2-9.4-9.4V361.9c0-5.2,4.2-9.4,9.4-9.4h478c5.2,0,9.4,4.2,9.4,9.4v338.6
			C761.4,705.6,757.2,709.8,752,709.8z"/>
		<path class="st1" d="M740.3,675.5h-456c-3.2,0-5.8-2.6-5.8-5.8V371.3c0-3.2,2.6-5.8,5.8-5.8h455.9c3.2,0,5.8,2.6,5.8,5.8v298.5
			C746,673,743.4,675.5,740.3,675.5z"/>
		<path class="st8" d="M645.5,756.7H379.1v-17c0-4,3.3-7.3,7.3-7.3h251.8c4,0,7.3,3.3,7.3,7.3V756.7z"/>
		<g class="st9">
			<g>
				<g>
					<path class="st10" d="M703,606.8H404.5c-7.9,0-14.3-6.4-14.3-14.3V401.2c0-7.9,6.4-14.3,14.3-14.3H703
						c7.9,0,14.3,6.4,14.3,14.3v191.2C717.3,600.4,710.9,606.8,703,606.8z"/>
				</g>
			</g>
		</g>
		<g class="st11">
			<g>
				<g>
					<g>
						<g>
							<rect x="421.3" y="547.5" class="st12" width="14.2" height="35.8"/>
						</g>
					</g>
				</g>
				<g>
					<g>
						<g>
							<rect x="453.4" y="516.1" class="st13" width="14.2" height="67.2"/>
						</g>
					</g>
				</g>
				<g>
					<g>
						<g>
							<rect x="485.5" y="523.1" class="st12" width="14.2" height="60.2"/>
						</g>
					</g>
				</g>
				<g>
					<g>
						<g>
							<rect x="517.6" y="489.1" class="st13" width="14.2" height="94.2"/>
						</g>
					</g>
				</g>
				<g class="st14">
					<g>
						<g>
							<rect x="453.4" y="516.1" class="st15" width="6.5" height="67.2"/>
						</g>
					</g>
				</g>
				<g class="st14">
					<g>
						<g>
							<rect x="421.3" y="547.5" class="st15" width="6.5" height="35.8"/>
						</g>
					</g>
				</g>
				<g class="st16">
					<g>
						<g>
							<rect x="517.6" y="489.1" class="st15" width="6.5" height="94.2"/>
						</g>
					</g>
				</g>
				<g class="st14">
					<g>
						<g>
							<rect x="485.5" y="523.1" class="st15" width="6.5" height="60.2"/>
						</g>
					</g>
				</g>
				<g>
					<g>
						<g>
							<polygon class="st17" points="539.4,593.1 411.9,593.1 411.9,457.4 413.8,457.4 413.8,591.2 539.4,591.2 							"/>
						</g>
					</g>
				</g>
				<g>
					<g>
						<g>
							<polygon class="st17" points="425,530.8 423.7,529.3 457,499.4 487.9,506.1 521.4,468.8 522.8,470.1 488.6,508.2 
								457.6,501.5 							"/>
						</g>
					</g>
				</g>
				<g>
					<g>
						<g>
							<polygon class="st17" points="525.5,475.6 516,466.6 528.2,463.3 							"/>
						</g>
					</g>
				</g>
				<g>
					<g>
						<g>
							<g>
								<rect x="551.5" y="545" class="st13" width="9.8" height="9.8"/>
							</g>
						</g>
					</g>
					<g>
						<g>
							<g>
								<rect x="551.5" y="562.1" class="st12" width="9.8" height="9.8"/>
							</g>
						</g>
					</g>
					<g>
						<g>
							<g>
								<rect x="563.9" y="566.4" class="st18" width="31" height="5.6"/>
							</g>
						</g>
					</g>
					<g>
						<g>
							<g>
								<rect x="563.9" y="549.2" class="st18" width="31" height="5.6"/>
							</g>
						</g>
					</g>
				</g>
				<g>
					<g>
						<g>
							<g>
								<rect x="609" y="545" class="st13" width="9.8" height="9.8"/>
							</g>
						</g>
					</g>
					<g>
						<g>
							<g>
								<rect x="609" y="562.1" class="st12" width="9.8" height="9.8"/>
							</g>
						</g>
					</g>
					<g>
						<g>
							<g>
								<rect x="621.5" y="566.4" class="st18" width="31" height="5.6"/>
							</g>
						</g>
					</g>
					<g>
						<g>
							<g>
								<rect x="621.5" y="549.2" class="st18" width="31" height="5.6"/>
							</g>
						</g>
					</g>
				</g>
				<g>
					<g>
						<g>
							<g>
								<rect x="660.8" y="545" class="st19" width="9.8" height="9.8"/>
							</g>
						</g>
					</g>
					<g>
						<g>
							<g>
								<rect x="660.8" y="562.1" class="st20" width="9.8" height="9.8"/>
							</g>
						</g>
					</g>
					<g>
						<g>
							<g>
								<rect x="673.3" y="566.4" class="st10" width="20.4" height="5.6"/>
							</g>
						</g>
					</g>
					<g>
						<g>
							<g>
								<rect x="673.3" y="549.2" class="st10" width="20.4" height="5.6"/>
							</g>
						</g>
					</g>
				</g>
				<g>
					<g>
						<g>
							<g>
								<rect x="553.3" y="451.5" class="st10" width="140.4" height="2.6"/>
							</g>
						</g>
					</g>
					<g>
						<g>
							<g>
								<rect x="411.9" y="420.2" class="st10" width="281.8" height="5.8"/>
							</g>
						</g>
					</g>
					<g>
						<g>
							<g>
								<rect x="552.9" y="459.4" class="st10" width="140.8" height="2.6"/>
							</g>
						</g>
					</g>
					<g>
						<g>
							<g>
								<rect x="552.9" y="443.6" class="st10" width="140.8" height="2.6"/>
							</g>
						</g>
					</g>
					<g>
						<g>
							<g>
								<rect x="552.9" y="467.4" class="st10" width="140.8" height="2.6"/>
							</g>
						</g>
					</g>
					<g>
						<g>
							<g>
								<rect x="552.9" y="475.3" class="st10" width="140.8" height="2.6"/>
							</g>
						</g>
					</g>
					<g>
						<g>
							<g>
								<rect x="552.9" y="483.3" class="st10" width="140.8" height="2.6"/>
							</g>
						</g>
					</g>
					<g>
						<g>
							<g>
								<rect x="552.9" y="491.2" class="st10" width="140.8" height="2.6"/>
							</g>
						</g>
					</g>
					<g>
						<g>
							<g>
								<rect x="552.9" y="499.1" class="st10" width="140.8" height="2.6"/>
							</g>
						</g>
					</g>
					<g>
						<g>
							<g>
								<rect x="552.9" y="507.1" class="st10" width="140.8" height="2.6"/>
							</g>
						</g>
					</g>
					<g>
						<g>
							<g>
								<rect x="570.1" y="515" class="st10" width="123.6" height="2.6"/>
							</g>
						</g>
					</g>
				</g>
			</g>
			<path class="st21" d="M703,386.9H404.5c-7.9,0-14.3,6.4-14.3,14.3v12.5h327.1v-12.5C717.3,393.3,710.9,386.9,703,386.9z"/>
			<path class="st22" d="M675.2,400.8c0,2.3-1.9,4.1-4.1,4.1c-2.3,0-4.1-1.9-4.1-4.1c0-2.3,1.9-4.1,4.1-4.1
				C673.4,396.7,675.2,398.6,675.2,400.8z"/>
			<circle class="st22" cx="687.9" cy="400.8" r="4.1"/>
			<circle class="st22" cx="704.8" cy="400.8" r="4.1"/>
		</g>
		<g>
			<g>
				<g>
					<g>
						<path class="st23" d="M616.1,655.4H317.6c-7.9,0-14.3-6.4-14.3-14.3V449.9c0-7.9,6.4-14.3,14.3-14.3H616
							c7.9,0,14.3,6.4,14.3,14.3v191.2C630.4,649,624,655.4,616.1,655.4z"/>
					</g>
				</g>
			</g>
			<g>
				<g>
					<g>
						<path class="st10" d="M622.7,646.8H324.3c-7.9,0-14.3-6.4-14.3-14.3V441.3c0-7.9,6.4-14.3,14.3-14.3h298.4
							c7.9,0,14.3,6.4,14.3,14.3v191.2C637,640.4,630.6,646.8,622.7,646.8z"/>
					</g>
				</g>
			</g>
			<g>
				<g>
					<g>
						<g>
							<rect x="341" y="587.6" class="st20" width="14.2" height="35.8"/>
						</g>
					</g>
				</g>
				<g>
					<g>
						<g>
							<rect x="373.1" y="556.2" class="st19" width="14.2" height="67.2"/>
						</g>
					</g>
				</g>
				<g>
					<g>
						<g>
							<rect x="405.2" y="563.1" class="st20" width="14.2" height="60.2"/>
						</g>
					</g>
				</g>
				<g>
					<g>
						<g>
							<rect x="437.4" y="529.1" class="st19" width="14.2" height="94.2"/>
						</g>
					</g>
				</g>
				<g class="st14">
					<g>
						<g>
							<rect x="373.1" y="556.2" class="st15" width="6.5" height="67.2"/>
						</g>
					</g>
				</g>
				<g class="st14">
					<g>
						<g>
							<rect x="341" y="587.6" class="st15" width="6.5" height="35.8"/>
						</g>
					</g>
				</g>
				<g class="st16">
					<g>
						<g>
							<rect x="437.4" y="529.1" class="st15" width="6.5" height="94.2"/>
						</g>
					</g>
				</g>
				<g class="st14">
					<g>
						<g>
							<rect x="405.2" y="563.1" class="st15" width="6.5" height="60.2"/>
						</g>
					</g>
				</g>
				<g>
					<g>
						<g>
							<polygon class="st17" points="459.1,633.2 331.6,633.2 331.6,509.6 333.6,509.6 333.6,631.3 459.1,631.3 							"/>
						</g>
					</g>
				</g>
				<g>
					<g>
						<g>
							<polygon class="st17" points="344.7,570.8 343.4,569.4 376.8,539.4 407.7,546.2 441.1,508.9 442.6,510.2 408.4,548.3 
								377.3,541.6 							"/>
						</g>
					</g>
				</g>
				<g>
					<g>
						<g>
							<polygon class="st17" points="445.2,515.7 435.8,506.7 447.9,503.4 							"/>
						</g>
					</g>
				</g>
				<g>
					<g>
						<g>
							<g>
								<rect x="471.2" y="585.1" class="st19" width="9.8" height="9.8"/>
							</g>
						</g>
					</g>
					<g>
						<g>
							<g>
								<rect x="471.2" y="602.2" class="st20" width="9.8" height="9.8"/>
							</g>
						</g>
					</g>
					<g>
						<g>
							<g>
								<rect x="483.7" y="606.4" class="st18" width="31" height="5.6"/>
							</g>
						</g>
					</g>
					<g>
						<g>
							<g>
								<rect x="483.7" y="589.3" class="st18" width="31" height="5.6"/>
							</g>
						</g>
					</g>
				</g>
				<g>
					<g>
						<g>
							<g>
								<rect x="528.8" y="585.1" class="st19" width="9.8" height="9.8"/>
							</g>
						</g>
					</g>
					<g>
						<g>
							<g>
								<rect x="528.8" y="602.2" class="st20" width="9.8" height="9.8"/>
							</g>
						</g>
					</g>
					<g>
						<g>
							<g>
								<rect x="541.2" y="606.4" class="st18" width="31" height="5.6"/>
							</g>
						</g>
					</g>
					<g>
						<g>
							<g>
								<rect x="541.2" y="589.3" class="st18" width="31" height="5.6"/>
							</g>
						</g>
					</g>
				</g>
				<g>
					<g>
						<g>
							<g>
								<rect x="580.6" y="585.1" class="st19" width="9.8" height="9.8"/>
							</g>
						</g>
					</g>
					<g>
						<g>
							<g>
								<rect x="580.6" y="602.2" class="st20" width="9.8" height="9.8"/>
							</g>
						</g>
					</g>
					<g>
						<g>
							<g>
								<rect x="593.1" y="606.4" class="st18" width="20.4" height="5.6"/>
							</g>
						</g>
					</g>
					<g>
						<g>
							<g>
								<rect x="593.1" y="589.3" class="st18" width="20.4" height="5.6"/>
							</g>
						</g>
					</g>
				</g>
				<g>
					<g>
						<g>
							<g>
								<rect x="473" y="491.6" class="st18" width="140.4" height="2.6"/>
							</g>
						</g>
					</g>
					<g>
						<g>
							<g>
								<rect x="331.6" y="460.2" class="st18" width="281.8" height="5.8"/>
							</g>
						</g>
					</g>
					<g>
						<g>
							<g>
								<rect x="472.6" y="499.5" class="st18" width="140.8" height="2.6"/>
							</g>
						</g>
					</g>
					<g>
						<g>
							<g>
								<rect x="472.6" y="483.6" class="st18" width="140.8" height="2.6"/>
							</g>
						</g>
					</g>
					<g>
						<g>
							<g>
								<rect x="472.6" y="507.4" class="st18" width="140.8" height="2.6"/>
							</g>
						</g>
					</g>
					<g>
						<g>
							<g>
								<rect x="472.6" y="515.4" class="st18" width="140.8" height="2.6"/>
							</g>
						</g>
					</g>
					<g>
						<g>
							<g>
								<rect x="472.6" y="523.3" class="st18" width="140.8" height="2.6"/>
							</g>
						</g>
					</g>
					<g>
						<g>
							<g>
								<rect x="472.6" y="531.3" class="st18" width="140.8" height="2.6"/>
							</g>
						</g>
					</g>
					<g>
						<g>
							<g>
								<rect x="472.6" y="539.2" class="st18" width="140.8" height="2.6"/>
							</g>
						</g>
					</g>
					<g>
						<g>
							<g>
								<rect x="472.6" y="547.1" class="st18" width="140.8" height="2.6"/>
							</g>
						</g>
					</g>
					<g>
						<g>
							<g>
								<rect x="489.9" y="555.1" class="st18" width="123.6" height="2.6"/>
							</g>
						</g>
					</g>
				</g>
			</g>
			<path class="st24" d="M622.7,427H324.3c-7.9,0-14.3,6.4-14.3,14.3v12.5h327v-12.5C637,433.4,630.6,427,622.7,427z"/>
			<path class="st25" d="M595,440.9c0,2.3-1.9,4.1-4.1,4.1s-4.1-1.9-4.1-4.1c0-2.3,1.9-4.1,4.1-4.1S595,438.6,595,440.9z"/>
			<path class="st25" d="M611.8,440.9c0,2.3-1.9,4.1-4.1,4.1c-2.3,0-4.1-1.9-4.1-4.1c0-2.3,1.9-4.1,4.1-4.1
				C610,436.8,611.8,438.6,611.8,440.9z"/>
			<path class="st25" d="M628.7,440.9c0,2.3-1.9,4.1-4.1,4.1c-2.3,0-4.1-1.9-4.1-4.1c0-2.3,1.9-4.1,4.1-4.1S628.7,438.6,628.7,440.9
				z"/>
		</g>
		<path class="st26" d="M733.1,352.7h-76.6c0.5,24.8,1,49.7,1.3,74.5c0,3.8,0,7.7-1.4,11.2c-0.1,0-0.1,0-0.1,0
			c-1-0.1-0.6,0.3-0.9,2.1v0.1c-3.1,5.1-9.1,7.8-15,9.1c-0.1,0.3,0,0.6,0.1,0.8c-0.7,0.6-1,1.4-0.6,2.3c0.4,0.8,4.8,2,10.7,1.3
			c1.7-0.2,5.1-1.1,6.6-1.8c0.9-0.4,1.8-1.1,2.4-1.7c0.8-0.1,1.5-0.3,2.2-0.5l0.2,0.2l6.9-3c0,0-0.7-4.3-1.3-6.6
			c-0.1-0.4-0.3-0.8-0.5-1.1c5.7-15.6,10.3-31.5,13.4-47.8c-1.2,20.2-8.5,61.2-9,62.6c-0.9,2.4-4.1,5.7-8.7,6.1
			c-1.6,0.1-9.6-0.3-8.7,3.3c0.2,0.9,4.3,2.7,10.3,3.2c1.7,0.1,5.2-0.2,6.9-0.7c2.2-0.6,4.3-2.3,4.3-2.3l0.9,1.2l7.3-1.8
			c0,0,0-1.9-0.1-4.2c0-2.3-1.6-4.4-1.6-4.4l0.1-4.1l4-0.5c0,0,8.1-26.2,11.9-35.1c1.6-3.7,3.3-7.3,4.3-11.1
			c1.2-4.5,1.3-9.3,1.7-13.9c0.7-8.5,2.3-17,4.7-25.2c0.2-0.5,0.3-1.1,0.7-1.5c0.6-0.7,1.7-0.8,2.6-0.9c10.3-0.9,15,0.8,21.5-1.2
			c8.5-2.6,9.4-6.5,9.8-6.7C740.3,353.5,736.8,352.7,733.1,352.7z"/>
		<g class="st9">
			<path class="st27" d="M761.4,524.2v-88.8c-13.2,17.3-26.4,32.9-39.6,50.2c-5.7,7.5-28.3,32.4-12.9,42.4
				c3.9,2.6,10.7,2.4,14.2,2.7c12.3,0.9,24.4-2.5,36.3-5.9C760,524.6,760.7,524.4,761.4,524.2z"/>
		</g>
		<path class="st26" d="M761.4,543.3l-7.4,0.6l-0.1-0.4l-5.7,0.4l-1.7-4.9c-1-2.8-4.2-4.8-7.2-4.6s-4.7,2.7-3.7,5.5
			c0.3,0.8,1.1,3.2,1.7,4.8l-6,0.5l0.1,0.4l-12.4,1c-2,0-4.9,2.6-4.2,4.3l0.1,0.3c0,0.2,0,0.3,0.1,0.5l10.8,30.4L725.5,710H738
			l23.6-91.8v-74.9H761.4z M742,542.3c-1.7,0.1-3.5-1-4.1-2.6s0.4-2.9,2.1-3.1c1.7-0.1,3.5,1,4.1,2.6
			C744.6,540.8,743.7,542.2,742,542.3z"/>
		<path class="st28" d="M295.9,490.6c-2.8,3.1-6.1,9.6-7.4,12.4c-1.4,2.8-2.9,4.3-6.9,6.2c-5.5,2.5-11.3,4.9-16.9,7.1v14.5
			c11.4-6.9,21.8-13.3,22-13.4c8.7,3.3,16.1-3.9,18.4-9.2c1.1-2.4-0.5-3.3-0.6-4.4c0-0.6,0.7-4,0.6-4.4c-0.7-3.1-8.9-0.4-8.2-1.8
			c0.4-1.1,1.4-3.7,3.4-5.1c4-2.7,7.1-5.8,7.1-7C307.4,483.5,296.9,489.5,295.9,490.6z"/>
	</g>
	<g>
		<path class="st29" d="M925.2,787.6H746c-3.8,0-6.9-3.1-6.9-6.9V571.3c0-3.8,3.1-6.9,6.9-6.9h179.2c3.8,0,6.9,3.1,6.9,6.9v209.4
			C932.2,784.5,929.1,787.6,925.2,787.6z"/>
		<g>
			<g>
				<path class="st30" d="M918.5,633.6H758.7c-1,0-1.8-0.8-1.8-1.8v-42.3c0-1,0.8-1.8,1.8-1.8h159.8c1,0,1.8,0.8,1.8,1.8v42.3
					C920.2,632.8,919.5,633.6,918.5,633.6z"/>
				<path class="st30" d="M797.1,678.9h-38.5c-1,0-1.8-0.8-1.8-1.8v-25.6c0-1,0.8-1.8,1.8-1.8h38.5c1,0,1.8,0.8,1.8,1.8v25.6
					C798.9,678.2,798.1,678.9,797.1,678.9z"/>
				<path class="st30" d="M857.8,678.9h-38.5c-1,0-1.8-0.8-1.8-1.8v-25.6c0-1,0.8-1.8,1.8-1.8h38.5c1,0,1.8,0.8,1.8,1.8v25.6
					C859.6,678.2,858.8,678.9,857.8,678.9z"/>
				<path class="st30" d="M918.5,678.9H880c-1,0-1.8-0.8-1.8-1.8v-25.6c0-1,0.8-1.8,1.8-1.8h38.5c1,0,1.8,0.8,1.8,1.8v25.6
					C920.2,678.2,919.5,678.9,918.5,678.9z"/>
				<path class="st30" d="M797.1,725.8h-38.5c-1,0-1.8-0.8-1.8-1.8v-25.6c0-1,0.8-1.8,1.8-1.8h38.5c1,0,1.8,0.8,1.8,1.8V724
					C798.9,725,798.1,725.8,797.1,725.8z"/>
				<path class="st30" d="M857.8,725.8h-38.5c-1,0-1.8-0.8-1.8-1.8v-25.6c0-1,0.8-1.8,1.8-1.8h38.5c1,0,1.8,0.8,1.8,1.8V724
					C859.6,725,858.8,725.8,857.8,725.8z"/>
				<path class="st30" d="M797.1,772.6h-38.5c-1,0-1.8-0.8-1.8-1.8v-25.6c0-1,0.8-1.8,1.8-1.8h38.5c1,0,1.8,0.8,1.8,1.8v25.6
					C798.9,771.8,798.1,772.6,797.1,772.6z"/>
				<path class="st30" d="M857.8,772.6h-38.5c-1,0-1.8-0.8-1.8-1.8v-25.6c0-1,0.8-1.8,1.8-1.8h38.5c1,0,1.8,0.8,1.8,1.8v25.6
					C859.6,771.8,858.8,772.6,857.8,772.6z"/>
			</g>
			<path class="st30" d="M918.5,772.6H880c-1,0-1.8-0.8-1.8-1.8v-72.4c0-1,0.8-1.8,1.8-1.8h38.5c1,0,1.8,0.8,1.8,1.8v72.4
				C920.2,771.8,919.5,772.6,918.5,772.6z"/>
		</g>
		<g class="st31">
			<path class="st32" d="M753.9,589.8c0-2.8,2.3-5.1,5.1-5.1h153.2c2.8,0,5.1,2.3,5.1,5.1v35.7c0,2.8-2.3,5.1-5.1,5.1H759"/>
			<path class="st32" d="M794.2,676h-38.5c-1,0-1.8-0.8-1.8-1.8v-25.6c0-1,0.8-1.8,1.8-1.8h38.5c1,0,1.8,0.8,1.8,1.8v25.6
				C795.9,675.2,795.2,676,794.2,676z"/>
			<path class="st32" d="M854.8,676h-38.5c-1,0-1.8-0.8-1.8-1.8v-25.6c0-1,0.8-1.8,1.8-1.8h38.5c1,0,1.8,0.8,1.8,1.8v25.6
				C856.6,675.2,855.8,676,854.8,676z"/>
			<path class="st32" d="M915.5,676H877c-1,0-1.8-0.8-1.8-1.8v-25.6c0-1,0.8-1.8,1.8-1.8h38.5c1,0,1.8,0.8,1.8,1.8v25.6
				C917.3,675.2,916.5,676,915.5,676z"/>
			<path class="st32" d="M794.2,722.8h-38.5c-1,0-1.8-0.8-1.8-1.8v-25.6c0-1,0.8-1.8,1.8-1.8h38.5c1,0,1.8,0.8,1.8,1.8V721
				C795.9,722,795.2,722.8,794.2,722.8z"/>
			<path class="st32" d="M854.8,722.8h-38.5c-1,0-1.8-0.8-1.8-1.8v-25.6c0-1,0.8-1.8,1.8-1.8h38.5c1,0,1.8,0.8,1.8,1.8V721
				C856.6,722,855.8,722.8,854.8,722.8z"/>
			<path class="st32" d="M794.2,769.6h-38.5c-1,0-1.8-0.8-1.8-1.8v-25.6c0-1,0.8-1.8,1.8-1.8h38.5c1,0,1.8,0.8,1.8,1.8v25.6
				C795.9,768.8,795.2,769.6,794.2,769.6z"/>
			<path class="st32" d="M854.8,769.6h-38.5c-1,0-1.8-0.8-1.8-1.8v-25.6c0-1,0.8-1.8,1.8-1.8h38.5c1,0,1.8,0.8,1.8,1.8v25.6
				C856.6,768.8,855.8,769.6,854.8,769.6z"/>
		</g>
		<path class="st20" d="M915.5,769.6H877c-1,0-1.8-0.8-1.8-1.8v-72.4c0-1,0.8-1.8,1.8-1.8h38.5c1,0,1.8,0.8,1.8,1.8v72.4
			C917.3,768.8,916.5,769.6,915.5,769.6z"/>
		<path class="st33" d="M878.3,767.5v-65.8c0-2.8,2.3-5.1,5.1-5.1h31.9c0.6,0,1.2,0.1,1.8,0.3c-0.7-1.9-2.6-3.3-4.7-3.3h-31.9
			c-2.8,0-5.1,2.3-5.1,5.1v65.8c0,2.2,1.4,4,3.3,4.7C878.4,768.7,878.3,768.1,878.3,767.5z"/>
		<path class="st34" d="M739.1,617l5.2,13.6h21.6c0,0-1.5,58.9-1.6,69.9s9.1,87.2,9.1,87.2h12.5l-1.3-96l17.8-49.2
			c0,0,13.4,65.9,18.9,76.9s35.3,68.3,35.3,68.3h11.5l-29.5-126.2l-12.7-43.9L762,587.7l-22.9,2.3"/>
	</g>
	<g>
		<polygon class="st20" points="306.6,665.9 296.5,770.4 395.7,770.5 386.1,665.7 		"/>
		<g>
			<g>
				<path class="st35" d="M323.9,675.5L323.9,675.5c0-1.7,1.7-3.1,3.7-3.2l0,0c2,0,3.7,1.4,3.7,3.1c0,1.7-1.7,3.1-3.7,3.2l0,0
					C325.6,678.6,323.9,677.2,323.9,675.5z M327.6,673.5c-1.4,0-2.5,0.9-2.5,1.9c0,1.1,1.1,1.9,2.5,1.9l0,0c1.4,0,2.5-0.9,2.5-1.9
					C330.2,674.4,329,673.5,327.6,673.5L327.6,673.5z M324.5,675.5L324.5,675.5L324.5,675.5z"/>
			</g>
			<g>
				<path class="st35" d="M360.9,675.4h0.6H360.9c0-0.7,0.3-1.5,0.9-2c0.7-0.7,1.7-1.1,2.8-1.1l0,0c2,0,3.7,1.4,3.7,3.1
					c0,0.9-0.4,1.7-1.1,2.3s-1.6,0.9-2.6,0.9l0,0C362.5,678.5,360.9,677.1,360.9,675.4z M364.6,673.4c-0.8,0-1.5,0.3-2,0.8
					c-0.2,0.2-0.5,0.6-0.5,1.2l0,0c0,1.1,1.1,1.9,2.5,1.9l0,0c0.7,0,1.3-0.2,1.8-0.6c0.4-0.4,0.7-0.8,0.7-1.3
					C367.1,674.3,366,673.4,364.6,673.4L364.6,673.4z"/>
			</g>
		</g>
		<g>
			<path class="st35" d="M345,698.3c0.3,0,0.7,0,1.1,0c6.8-0.2,12-2.4,15.4-6.5c5.7-6.8,4.4-16.2,4.3-16.6c-0.1-0.7-0.7-1.1-1.4-1
				c-0.7,0.1-1.1,0.7-1,1.4c0,0.1,1.2,8.8-3.8,14.7c-3,3.5-7.5,5.4-13.6,5.6c-5.9,0.2-10.3-1.4-13.2-4.6c-5.3-5.9-4-15.6-4-15.7
				c0.1-0.7-0.4-1.3-1-1.4c-0.6-0.1-1.3,0.4-1.4,1c-0.1,0.4-1.5,10.9,4.6,17.6C334.2,696.5,339,698.3,345,698.3z"/>
		</g>
	</g>
	<g>
		<g>
			<path class="st36" d="M209.2,430.3c3.8,6.6,0.5,15.7,4.4,22.3c1.5,2.6,4.2,4.7,4.9,7.7c0.6,2.5-0.3,5.3-2.4,6.9
				c-2,1.6-5,1.9-7.3,0.6c-0.5-0.3-1-0.6-1.5-0.7c-1.9-0.6-3.6,1.1-5.3,2.3c-2,1.4-4.6,2-7,1.2c-3-1-4.8-4-5.8-7
				c-2.8-8.3-0.8-17.4,1.8-25.8c1.3-4.2,3.2-8.8,7.3-10.4"/>
		</g>
		<path class="st37" d="M298.3,500.8c0.1,0.9,1.5,1.7,0.5,3.7c-2.1,4.3-8.6,10.3-16.3,7.6c-0.3,0.1-42.9,24.7-46.2,24.7
			s-25.6-21.1-32.9-47.3c-1.7-6.2-1.1-13.6,4.8-16.7c0,0,4.9,1.2,8,7.2c4.8,9.1,19.3,39.4,22.5,40.5c4-2.7,23.5-8.5,39.3-15.2
			c3.5-1.5,4.9-2.8,6.1-5.1c1.2-2.3,4.1-7.7,6.6-10.2c0.8-0.9,10.2-5.9,10.2-4.2c0,1-2.7,3.5-6.3,5.7c-1.8,1.2-2.7,3.3-3,4.2
			c-0.6,1.2,6.7-1,7.3,1.5C298.9,497.5,298.2,500.3,298.3,500.8z"/>
		<g>
			<path class="st38" d="M206.5,471.9c5.5,1.3,10.1,4.8,12.7,9.9c0.7,1.3,1.2,2.6,1.7,4c2.3,5.8,5.4,11,7.7,16.7
				c-3.1,2.5-6.8,3.6-10,4.8c-3,1.1-6.2,1.5-9.3,1.3c-0.5,0-1.1-0.1-1.6-0.3c-0.7-0.3-1.2-0.9-1.6-1.4c-1-1.1-1.9-2.2-2.8-3.4
				c-0.8-1-1.6-2-1.9-3.3c-0.4-1.7,0-3.4,0.4-5.1"/>
		</g>
		<g class="st9">
			<path class="st39" d="M212,487.7c-0.2-0.2-0.4-0.5-0.7-0.6c-0.6-0.2-1.2,0.2-1.5,0.7s-0.3,1.2-0.3,1.8c0,2.3,0.4,4.7,1.1,6.9
				l-0.7,12.2l0,0c3,0.2,5.9-0.2,8.7-1.3c1.3-0.5,2.7-1,4.2-1.6C221.3,498.9,216.6,493.1,212,487.7z"/>
		</g>
		<path class="st37" d="M193.2,459.9c0,0-0.2,7.6,1,8.1c2.3,1,4.9,1.5,4.9,1.5l0.1,15.8l-21-3.2l-14.5-8c0,0,15-5,15.2-6.5
			c0.1-1.5-0.8-9.9-0.8-9.9"/>
		<g>
			<path class="st37" d="M160.9,687.9L160.9,687.9c-5.8,27.3-3,64.7-4.3,85.3c0.3,0.1,7.8,1,7.8,1s17.8-86.5,21-103
				c0.2-1.2,0.4-2.2,0.4-3.2c0.8-12.5-10.5-13.1-16.8-2.8c-1,1.7-2,3.5-2.9,5.6c-0.4,0.8-0.7,1.6-1,2.5l0,0c-1,2.7-2,5.6-2.8,8.7
				l-0.1,0.3c-0.3,0.9-0.5,1.8-0.7,2.6v0.2C161.3,686,161.1,686.9,160.9,687.9z"/>
			<path class="st37" d="M194.6,590.1c-0.2,2.3-1.4,13-2.9,25.6c-1.2,10.6-2.6,22.6-3.6,32.1c-0.8,7.1-1.4,12.8-1.6,15.5
				c-0.1,1.7-0.3,3.2-0.6,4.6v0.1c-2.7,12.4-11.3,13.2-16.5,10.3c-0.7-0.4-1.4-0.9-2-1.4c-1.2-1.1-2-2.4-2.2-3.7l0,0
				c-0.3-2.6-0.7-6-1-10.2l0,0c0,0,0,0,0-0.1v-0.1c-0.6-8.1-1.2-18.5-1.7-28.6c-0.6-12.4-0.9-24.4-1-31.2c0-0.4,0-0.8-0.1-1.1
				c-0.1-20.7,19-34,30.8-27.6c0.2,0.1,0.3,0.1,0.4,0.2c0.2,0.1,0.3,0.2,0.5,0.3c1.4,0.9,1.8,4,1.8,7.5
				C194.9,584.9,194.7,587.7,194.6,590.1z"/>
			<path class="st37" d="M165.6,668.3l-1.5-5.4c0,0,0,0,0,0.1c0,1.2,0.2,10-1.8,19l-0.1,0.3c-0.2,0.9-0.4,1.8-0.7,2.6v0.2
				c-0.4,1.4-0.6,2.3-0.6,2.8c0,0,0,0,0,0.1c0,2.5,5.2-8.5,6.4-11c0.1-0.3,0.2-0.5,0.2-0.5l-1.4-5.7L165.6,668.3z"/>
		</g>
		<g>
			<path class="st37" d="M206.6,693.1L206.6,693.1c-0.5,28.6,8.3,62.1,10.6,82.9c0.3,0,7.2-0.9,7.2-0.9s1.3-87.4,1.4-104.7
				c0-1.2-0.1-2.3-0.2-3.3c-1.4-12.6-11.6-10.4-15.6,1.4c-0.7,1.9-1.2,4-1.7,6.2c-0.2,0.9-0.3,1.8-0.5,2.8l0,0
				c-0.5,2.9-0.8,6.1-1,9.3v0.3c-0.1,0.9-0.1,1.9-0.2,2.8v0.2C206.7,691.1,206.6,692.1,206.6,693.1z"/>
			<path class="st37" d="M212.5,681.4c-0.7-0.2-1.4-0.5-2-0.9c-1.3-0.8-2.2-1.9-2.6-3.1l0,0c-0.7-2.5-1.6-5.9-2.6-9.9c0,0,0,0,0-0.1
				v-0.1c-1.9-7.9-4.2-18.1-6.3-28c-2.6-12.2-5-24.1-6.2-30.8c-0.1-0.4-1.2-5.3-1.2-5.6c-3.7-20.8,12.6-34.4,24.4-30.5
				c0.2,0.1,0.3,0.1,0.5,0.2c2.4,1,3,9.3,3.6,15c0.5,5.6,4.6,64.2,5.6,74.8c0.2,1.7,0.2,3.2,0.2,4.7
				C225.4,680.1,217.8,683,212.5,681.4z"/>
			<path class="st37" d="M207.5,672.5l-2.2-5c0,0,0,0,0,0.1c0.2,1.2,1.8,9.9,1.6,19.3v0.3c0,0.9-0.1,1.9-0.2,2.8v0.2
				c-0.1,1.5-0.1,2.5-0.1,2.9c0,0,0,0,0,0.1c0.4,2.5,3.3-9.7,3.9-12.6c0.1-0.4,0.1-0.6,0.1-0.6l-2.2-5.3L207.5,672.5z"/>
		</g>
		<path class="st40" d="M171.3,550c0,0-15.3,19.4-13.7,39c0.7,8.1,1.7,15.3,2.6,23.5c0.1,1.2,2,18.4,1.5,18.4c0,0,31.5,9.7,62-3
			c0-2.1,2.4-42.1-14-80.2C189.7,550.4,171.3,550,171.3,550z"/>
		<path class="st38" d="M219.2,505.2c-0.1,5.6-3.1,9-7.3,13.7c-0.5,0.8-1.9,13.2-2.3,21.5c-0.2,4.3,1.6,7,0,7.3
			c-6.1,5.3-28.2,9.7-38.3,2.4c1.1-9-3-28.7-5.7-38.8c-0.4-1.5-0.8-2.9-1.1-3.9c-2.5-7.6-7.1-32.1-3.7-33.2c0.7-0.2,1.7-0.5,2.9-0.9
			c5.3-1.6,13.1-4.3,13.1-4.3s4.6,13.5,16.5,15.2c6.5-2.7,5.9-10.9,5.8-14.7c2.1,0.6,3.1,1.2,9.7,3.1c1.8,2.7,0.3,8.2,3.2,16.5
			C212.7,491.2,219.3,498.4,219.2,505.2z"/>
		<path class="st37" d="M208.4,428.8c0,0,1.2,14.7-1.3,22.4c-1.9,5.7-9.5,11-15.9,11c-17.6,0-20.7-23.9-20.6-25
			c0.1-1.2,25.9-11.2,25.9-11.2L208.4,428.8z"/>
		<path class="st41" d="M210.2,573.9"/>
		<g>
			<path class="st4" d="M241.9,784.2c-6.3,1.1-12.9-0.6-15.7-0.2c-2.3,0.4-8.1,1.9-10.3-0.1s-1.8-8.9,0.7-9.8c0,0,0.6,0.2,1.6,0.4
				c1.6,0.2,4.2,0.4,7.4-0.6c4.8,2,4.9,2.8,10.3,3.9c2.4,0.5,5.1,1.3,6.9,2.1C245.2,781,245.4,783.6,241.9,784.2z"/>
		</g>
		<g>
			<path class="st4" d="M174.3,787c-6.3-1.1-10.2-4.5-13-5c-2.3-0.4-8-1.5-8.6-3.8c-0.4-1.7,1.3-9,3.9-9c0,0,0.5,0.4,1.4,0.9
				c1.4,0.8,3.8,1.7,7.2,1.9c3.8,3.5,3.7,4.3,8.4,7.2c2.1,1.2,4.4,2.9,5.8,4.3C181.3,785.2,177.9,787.6,174.3,787z"/>
		</g>
		<g>
			<path class="st37" d="M83,494.7l5.8-6.8l35.1,31.4c0,0,17.1-22.8,21.9-30c5.2-7.8,9.9-14.5,17.4-15.8c1.7,1.1-0.6,29.2-1.5,29.9
				c-10.6,7.9-31.2,33.5-37.8,34.8C116.3,539.7,83,494.7,83,494.7z"/>
			<path class="st38" d="M165.7,472.2c0,0-7.2,0.1-10.3,2.6s-17.8,25.9-17.8,25.9s-0.4,4.4,3.9,8.1c4.6,4,10.6,4.6,10.6,4.6
				s7.4-7.4,11.6-10.7c2.6-2.1,2.9,3.1,2.9,3.1l13-12.7L165.7,472.2z"/>
		</g>
		<g>
			<path class="st36" d="M161.4,472.4c-0.4-0.2-0.8-0.4-1.1-0.7c-2-1.2-3.9-2.5-4.7-4.8c-1.2-3.3-1.8-8.4-0.1-11.6
				c1.2-2.2,3.3-3.6,4.8-5.5c2.1-2.7,2.7-6.2,2.8-9.6c0.2-3.4,0-6.8,0.7-10.1c1.2-5.7,2.8-11.1,7.2-14.7c7-5.9,21-9.3,28.7-2.8
				c1.4,1.2,1.7,2.1,3.5,2.3c2.5,0.2,4.1,0.6,6.4,1.9c2.5,1.4,5.5,3.5,5.2,6.8c-0.2,2.3-2.8,5.9-4.8,6.9c-0.8,0.4-1.8,0.6-2.7,0.6
				c-3,0.1-5.4-1.9-8.4-1.6c-1.4,0.2-2.8,0.9-3.7,2c-1.1,1.3-0.9,3.1-2.1,4.3c-2,1.9-5,1.8-7.4,3.1c-0.4,0.2-0.8,0.4-1,0.8
				s-0.2,0.8-0.3,1.3c0,1.2-0.1,2.5-0.1,3.7c-1.2-0.5-1.3-2.2-2.2-3s-2.4-0.6-3.3,0.2c-0.9,0.8-1.4,2-1.6,3.2
				c-0.3,1.4,0.2,3,0.7,4.4c0.8,2.5,2.9,4.8,4.6,3.1c1.3,1.8-0.1,4.9-0.2,7c0,1.7,0,4.9,1.5,6c1.4,1,3.7,0.2,3.8,2.8
				c0.1,2.4-2.3,4.2-4.6,4.5s-4.7-0.5-6.9-1.2c-2.3-0.7-4.7-1.2-7-0.3c-1.3,0.5-2.5,1.5-3.9,1.8
				C163.9,473.6,162.6,473.1,161.4,472.4z"/>
		</g>
		<g>
			<path class="st37" d="M97.6,495.8c0,0-8.3-6.6-8.8-8.4s-0.7-3.7-1.4-5.5c-1-2.6-3.2-4.6-5.7-5.7c-2.1-0.9-1.1-1.6-3.3-1.1
				c-3.3,0.6-4.9,3.9-6.3,6.5c-5.7,10.9,9.9,13,10.5,13c1.1,0,6.9,6.6,6.9,6.6"/>
		</g>
		<g>
			<path class="st42" d="M71.5,490.5l5.7,3.8c0.7,0.5,1.7,0.3,2.2-0.5L91.8,473l-7.4-4.1l-13.3,19.5C70.6,489.1,70.8,490,71.5,490.5
				z"/>
			<g>
				<path class="st43" d="M51.3,446.3l1.9,1.3l7.9-11.5l-1.9-1.3c-2.8-1.9-6.8-0.8-8.9,2.3l0,0C48.1,440.4,48.6,444.5,51.3,446.3z"
					/>
				<polygon class="st43" points="44.1,460.3 80.3,465.8 88.6,453.8 70.3,422.2 				"/>
				<polygon class="st44" points="46.5,460.8 80.3,465.8 83.6,461 55.1,448.2 				"/>
				<path class="st45" d="M95.2,474.6L95.2,474.6c1.9,1.3,4.7,0.6,6.3-1.6l1.5-2.1c1.5-2.2,1.2-5.1-0.8-6.4l0,0
					c-1.9-1.3-4.7-0.6-6.3,1.6l-1.5,2.1C92.9,470.4,93.3,473.3,95.2,474.6z"/>
				<path class="st44" d="M95.9,466l-1.5,2.1c-1.5,2.2-1.2,5.1,0.8,6.4c1.9,1.3,4.7,0.6,6.3-1.6l1.5-2.1c0.1-0.2,0.2-0.3,0.3-0.5
					c-1.6,1.8-4.1,2.4-5.9,1.2c-1.8-1.2-2.2-3.8-1.1-5.9C96.2,465.7,96,465.9,95.9,466z"/>
				<path class="st46" d="M43,461.5L43,461.5c1.1,0.8,2.8,0.3,3.7-1l24.8-36.2c0.9-1.3,0.7-3-0.4-3.8l0,0c-1.1-0.8-2.8-0.3-3.7,1
					l-24.8,36.2C41.6,459.1,41.8,460.7,43,461.5z"/>
				<path class="st47" d="M71.6,421.3L51,451.4c-0.9,1.3-2.5,1.7-3.7,1c-0.3-0.2-0.5-0.4-0.6-0.7l-4.2,6c-0.9,1.3-0.7,3,0.4,3.8
					c1.1,0.8,2.8,0.3,3.7-1l24.8-36.2C72.1,423.4,72.2,422.2,71.6,421.3z"/>
				<path class="st46" d="M83.5,472.2l2.3,1.6c3.5,2.4,8.5,1.1,11.2-2.9l2.3-3.4c2.7-4,2.1-9.1-1.3-11.4l-2.3-1.6
					c-3.5-2.4-8.5-1.1-11.2,2.9l-2.3,3.4C79.5,464.7,80.1,469.8,83.5,472.2z"/>
				<path class="st47" d="M82.3,460.5l-3.5,5.1c-0.9,1.2-0.7,2.9,0.4,3.6l10.9,7.4c1.1,0.7,2.7,0.3,3.5-0.9l3.5-5.1
					c-0.9,1.2-2.4,1.7-3.5,0.9l-10.9-7.4C81.6,463.4,81.4,461.8,82.3,460.5z"/>
			</g>
		</g>
		<g>
			<path class="st37" d="M72.7,485.3c-0.4-3.2,0.3-6.2,2-8.5c0.6-0.8,1.3-1.5,2-2.2c0.3-0.3,0.7-0.7,1.2-0.8
				c0.8-0.2,1.8,0.1,2.6,0.6c0.9,0.5,1.8,1.3,2.2,2.2c0.6,1.5-0.4,2.7-1.6,3.5c-0.1,0.1-0.2,0.2-0.3,0.3c-0.1,0.2,0.1,0.5,0.2,0.7
				c0.5,0.9,0.9,1.9,0.8,2.8s-0.9,1.6-1.9,1.5c-0.4-0.1-1-0.2-1.1,0.1c0,0.1,0,0.2,0,0.4c0.1,0.9-0.1,1.8-0.7,2.4
				c-0.1,0.2-0.3,0.3-0.5,0.3s-0.4,0-0.5-0.1c-0.7-0.2-1.3-0.5-1.9-0.9"/>
		</g>
		<g>
			<path class="st37" d="M88.7,487.8c-0.2-1.2-0.6-3.2-0.7-4.4c-0.1-3.3-1.9-6.6-4.8-8.3c-0.2-0.1-0.5-0.3-0.8-0.2
				c-0.3,0.1-0.6,0.4-0.6,0.7s0,0.7,0.2,1c0.3,1.1,1.8,3,1.4,4.1c-0.7,1.6-1.2,3.4-1.2,5.1c0.1,1.6,0.8,4.1,2.6,4.4"/>
		</g>
		<line class="st48" x1="46.8" y1="404.6" x2="54" y2="421.8"/>
		<line class="st48" x1="31.6" y1="419.9" x2="46.5" y2="431.1"/>
		<line class="st48" x1="21.9" y1="440.7" x2="40.5" y2="442.5"/>
	</g>
	<g>
		<g>
			<path class="st37" d="M616.5,260.1c0,0-6.7-4.7-6.9-6.7s-4.9-10-6.4-11.6s-9.3-4.3-11-4.5s-11.2,0.6-10,1.9
				c1.2,1.3,7.4,0.8,8.6,1.5c1.2,0.7,1.2,0.7,1.2,0.7s-1.2,1.6-0.7,2.6s-2,2.5-1.1,4.1c1,1.7-0.4,1.6,0.5,3.3c1.4,2.9,5,4.5,6,3.7
				c0.7,1.7,3.4,5.2,6,4.9c2.6-0.2,8.8,5.6,8.8,5.6"/>
			<g>
				<path class="st37" d="M718.1,226.6c0.2,4.5-0.1,12.3,1.2,13.4c1.3,1.2,5.4,1,5.4,1s-14.8,18.7-16.1,17.7s-18.8-15.3-14.9-16
					c3.9-0.7,7.8-0.6,7.7-2.6s-0.2-4.1-0.3-6.1"/>
			</g>
			<path class="st20" d="M735,326.5c0,0-28.9,3.3-35.5,3.4s-6.3-3.3-6.3-3.3c-0.3-7.3-1.6-24.5-3-30.4c-1.3-5.5-1.9-7.5-3-12.6
				c-2.5-11.5-2.4-13.7-5-27.9l17.2-13.9c0,0,1.8,5.3,9,5.4c9.7,0.1,12.7-6.6,12.7-6.6l23.5,15.6l2.2,38l-2.8,31.3"/>
			<g>
				<path class="st37" d="M718.4,222.5c-0.5,2.3-1.2,4.5-2,6.6c-1.5,4-3.8,5.4-8,5.5c-2.9,0.1-5.9,0.1-8.8,0.2
					c-2.3,0.1-5.1,0.1-6.9-1.5c-1.8-1.6-1.8-4.2-2.2-6.4c-0.5-2.8-0.9-5.6-1.3-8.4c-0.6-5.5-0.9-11.1-0.8-16.6c0-0.8,0-1.5,0.2-2.3
					c0.1-0.3,0.2-0.6,0.4-0.8c0.3-0.3,0.7-0.3,1.1-0.4c5.5-0.9,11.1-1.2,16.7-1.1c3.9,0.1,8.1,0.6,11.2,3c3.1,2.4,4.6,6.4,6,10.1
					c0.2,0.6,0.4,1.4-0.1,1.8"/>
			</g>
			<g>
				<g>
					<path class="st49" d="M653.7,429.4c0,0,1,5.7,1.7,7.7c0.8,2,7.2,0.2,7.6-1.1c0.4-1.3-2-10.6-2-10.6"/>
					<path class="st50" d="M665.3,437.6c0.6,2.1,1.3,6.2,1.3,6.2l-6.4,2.8l-1.1-1c0,0-1.6,1.9-3.6,2.8c-1.5,0.7-4.6,1.6-6.2,1.7
						c-5.6,0.6-9.8-0.5-10.1-1.2c-1.4-3.3,6.1-4.1,7.5-4.5c4.2-1.1,6.6-4.7,7.1-7.1c0.3-1.7-0.1-2,0.9-2c0,0,0.8,0,1.6,0.8
						c1.2,1.2,3,1.8,4.6,1.1c0.9-0.4,1.8-1,2.3-1.9C663.1,435.3,664.7,435.5,665.3,437.6z"/>
				</g>
				<g>
					<g>
						<path class="st51" d="M682.1,354.4c-10.1,2-22.7,2.1-32.9,0.8c1.4,4.1,4.9,9.3,6.2,15c4.4,18.9,5.9,44.4,7,60.1
							c0,0-2.1,4-8.8,1c-10.1-24.9-27.7-75.3-27.5-86.3c0.2-13.9,35-17.3,60.5-20.7"/>
					</g>
					<g>
						<path class="st52" d="M726.6,326.5c8,5.9-44.4,27.9-44.4,27.9c-5.8,1.1-11.5,1.7-17.2,1.6c-0.5-1-1-2.1-1.3-3.3
							c-0.3-1.5-0.1-3.1-0.4-4.6c-0.5-3-2.7-5.5-5.2-7.1c-2.6-1.6-5.6-2.3-8.6-2.8c-7.1-1.1-19.5-0.3-19.5-0.3
							c15.8-11.6,48-13.1,63-14.1C695.9,328.6,725.4,325.7,726.6,326.5z"/>
					</g>
				</g>
				<g>
					<path class="st49" d="M670.3,442.7c0,0-0.1,5.8,0.4,7.9c0.4,2.1,7.1,1.4,7.7,0.2c0.6-1.2-0.2-10.8-0.2-10.8"/>
					<path class="st50" d="M680.3,452.7c0.2,2.2,0.2,6.3,0.2,6.3l-6.8,1.6l-0.9-1.2c0,0-1.9,1.6-4,2.2c-1.6,0.4-4.8,0.7-6.4,0.6
						c-5.6-0.4-9.5-2.1-9.7-3c-0.8-3.4,6.7-3,8.2-3.1c4.4-0.4,7.3-3.5,8.2-5.7c0.6-1.6,0.3-2,1.2-1.8c0,0,0.8,0.1,1.5,1
						c1,1.4,2.6,2.3,4.3,1.8c1-0.2,1.9-0.7,2.6-1.5C678.5,450.1,680.1,450.6,680.3,452.7z"/>
				</g>
				<g>
					<path class="st51" d="M744,325.3c0,0-16,1.6-35.5,1.1c-4.5,0-38.8,6.4-42.1,12.3c-5.4,9.6,3.5,65.5,2.7,105.5
						c0,0,4.1,3.4,11.4,0.2c1.8-19.7,13.4-66,5.4-87.7c18.9,2.5,34.2,5,51.4-0.7c4-1.3,7-4.2,8.8-9.4C747.9,341.4,747,330,744,325.3
						z"/>
				</g>
			</g>
			<g>
				<path class="st20" d="M699.5,241.7c0,0-4.1,0.2-4.9,0.3c-3.4,0.3-6.9,0.7-10.2,1.9c-4.7,1.7-8,6.1-11.8,9.5
					c-3.7,3.3-22.7,21.4-26.2,22c-3.5,0.7-34.6-20.6-34.6-20.6l-7.6,7.6c0,0,33.7,31.2,43.8,31.2c4.9,0,31.8-14.2,40.4-19.7
					L699.5,241.7z"/>
				<path class="st53" d="M648,287.7c-6.9,0.4-38.7-23.9-42.4-26.7l-1.5,1.5c0,0,33.7,31.2,43.8,31.2c4.1,0,23.4-9.8,34.8-16.3
					l2.9-1.7l-1.8-10.5C683.9,265.2,655.4,287.3,648,287.7z"/>
			</g>
			<g>
				<path class="st54" d="M615.7,331.6h77.2L679,286.4c-0.8-2.5-3.1-4.2-5.7-4.2h-67.6c-2.6,0-4.4,2.5-3.7,5L615.7,331.6z"/>
				<path class="st24" d="M614.7,331.6h76.1L677,286.5c-0.8-2.5-3.1-4.2-5.7-4.2h-67.6c-2.6,0-4.4,2.5-3.7,5l13.3,43.2
					C613.4,331.1,614,331.6,614.7,331.6z"/>
			</g>
			<g class="st11">
				<path class="st55" d="M733.4,263.5c-3.8,17.4-4.5,31-5.6,43.4c-13.5,5.2-19,13-32.2,18.9c0,0-10.4-1.7-11.5,2.2
					c-0.6,2.3,12.2,4.1,12.2,4.1c12.2,0.1,44.5-8.9,46.7-9.5s8.5-41.6,8.8-63.9c0-3.2-0.1-6.6-2.1-9.1c-1-1.3-2.5-2.2-4-2.9
					c-8.6-4.4-15-5.6-24.6-6.2"/>
			</g>
			<g>
				<path class="st37" d="M697.5,328.5c-1.5-1.8-4.1-2.1-6.4-2c-1.7,0-3.4,0.2-5.2,0.4c-0.8,0.1-1.7,0.3-1.8,1.1
					c-0.1,0.8,3.8,0,5.8,0.6c-4,0.3-8,0.4-11.9,0.3c-0.5,0-0.9,0-1.4,0.1c-0.4,0.2-0.8,0.6-0.8,1s0.3,0.7,0.5,0.9
					c1.1,1,2.6,1.4,4.1,1.7c6.1,1.1,12.5,0.9,18.2-1.6"/>
			</g>
			<g>
				<path class="st20" d="M732.6,263.2c-0.3,18.6-1.6,27.1-1.3,45.7c-9.3,2-22.2,12.6-35.4,18.4c0,0-0.8,2.6,0.4,4.8
					c1,0.4,44.5-10.2,48-13.4c3.1-2.9,7.2-37.7,7.5-60c0-3.2-0.1-6.6-2.1-9.1c-1-1.3-2.5-2.2-4-2.9c-8.6-4.4-15-5.6-24.6-6.2"/>
			</g>
			<g>
				<path class="st56" d="M653.9,307.7c0.3,4-4.4,7.2-10.4,7.2s-11.2-3.2-11.5-7.2s4.4-7.2,10.4-7.2S653.7,303.7,653.9,307.7z"/>
				
					<ellipse transform="matrix(3.896174e-02 -0.9992 0.9992 3.896174e-02 310.4259 938.2217)" class="st54" cx="643" cy="307.7" rx="4" ry="7"/>
			</g>
			
				<image style="overflow:visible;" width="1024" height="1024" xlink:href="../Downloads/Web/Zeroqode/Zeroqode LOGO/zeroqode-logo-colorful copy.png"  transform="matrix(1.366267e-02 0 0 7.806250e-03 635.9753 303.7312)">
			</image>
		</g>
		<path class="st57" d="M704.8,210.7c-0.1-0.7-1.7-0.8-3.2-0.6s-5.7,0.7-6.5,1.4s-0.8,1.1-1.3,1.2c-0.4,0-0.5-0.4-1.5-0.8
			c-1-0.4-3.4-0.1-4.9,0.1c-1.5,0.2-3,0.5-3,1.2s0.3,1.9,0.6,2.1c0.3,0.2,0.3,0.2,1.5,3c0.7,1.6,1.7,2.5,3.7,2
			c2.5-0.6,2.7-3.5,2.9-4.7s0.4-1.4,0.8-1.4c0.4-0.1,0.7,0.1,1.1,1.2c0.5,1.1,0.8,3.7,3.5,3.9c3.4,0.2,4.9-1,5.4-3.2
			c0.6-3,0.5-3,0.8-3.3c0.1-0.1,2.6,0.2,2.6,0.2l-0.1-0.9C707.2,212.1,704.9,210.8,704.8,210.7z M692.4,216.7
			c-0.1,1.5-0.8,2.9-2.5,3.1c-1.6,0.2-2.3-0.6-3.1-2.6c-0.7-1.7-0.8-3.1-0.5-3.6s1.1-0.5,3.1-0.6s2.6-0.2,2.9,0.7
			C692.3,213.9,692.5,215.1,692.4,216.7z M703.6,215c-0.3,2.2-1.1,3.2-3.3,3.4c-3,0.4-3.6-0.8-4.1-2.3c-0.4-1.5-0.6-2.7-0.6-3
			c0.1-0.9,0.7-1,2.6-1.4c1.9-0.4,4.5-0.8,4.9-0.4C703.5,211.8,703.8,213.1,703.6,215z"/>
		<g>
			<path class="st58" d="M725.5,205.9c-0.2-1.6-0.5-3.1-0.8-4.6c-1-4-3.5-7.4-7.1-9.4c-4.7-2.5-11-3-16.1-1.6
				c-3,0.8-4.1,2.4-5.6,2.3c-1.2,0-2.6-0.8-4.1-1.4c-11.5-4.1-9.6,7.2-8.4,10.3c0.5,1.4,3.2,2.4,3.5,2.9c0.3,0.6,0.3,3.4,0.5,4.6
				c0.2,1.2,1.4,1.7,1.4,1.7s0.1-3.6,0.1-4.1c0.2-1.3,0.6-2.6,1.7-3.4c1.2-0.8,2.8-0.9,4.2-1.2s8.1,1,8.5,1.4
				c2.2,1.9,2.7,6.1,3.3,8.6c0.3,1.2,0.6,1.9,1,1.9c0.4-3.4,1.5-3.5,3.6-2.3c1.1,0.6,1.7,2.8,1.7,4.6c0,2.2-1.2,4.6-3.4,5
				c-0.8,0.2,1.6,4.8,2.8,6c0.4,0.4,0.7,0.8,1.2,1.1c0.4,0.3,0.9,0.4,1.4,0.5c0.6,0.1,1.1,0.3,1.7,0.4c0.7,0.2,1.5,0.4,2.3,0.2
				c1.2-0.3,1.9-1.6,2.4-2.8c0.9-1.9,1.9-3.7,2.7-5.6C725.6,216.6,726.1,211,725.5,205.9z"/>
		</g>
	</g>
	<g>
		<path class="st29" d="M933.6,377.1H787.4l17.5-13v-63.2c0-5.3,4.3-9.6,9.6-9.6h119.1c5.3,0,9.6,4.3,9.6,9.6v66.6
			C943.1,372.8,938.8,377.1,933.6,377.1z"/>
		<g>
			<rect x="863.6" y="303.7" class="st59" width="66.8" height="6.4"/>
			<rect x="863.6" y="313.2" class="st59" width="66.8" height="6.4"/>
			<rect x="863.6" y="322.8" class="st59" width="66.8" height="6.4"/>
			<rect x="863.6" y="332.1" class="st59" width="66.8" height="6.4"/>
			<rect x="863.6" y="343.2" class="st59" width="46.6" height="6.4"/>
			<g>
				<path class="st29" d="M855,352.8h-35.2c-1.9,0-3.4-1.5-3.4-3.4v-42.3c0-1.9,1.5-3.4,3.4-3.4H855c1.9,0,3.4,1.5,3.4,3.4v42.3
					C858.4,351.2,856.9,352.8,855,352.8z"/>
				<rect x="816.4" y="358.9" class="st59" width="42" height="5.3"/>
				<g>
					<path class="st10" d="M841.5,335.5h-15.2c-0.9,0-1.6-0.6-1.8-1.4l-2.9-10.8c-0.3-1.2,0.6-2.4,1.8-2.4h21.1
						c1.3,0,2.2,1.2,1.8,2.4l-2.9,10.8C843.1,335,842.4,335.5,841.5,335.5z"/>
					<g>
						<path class="st10" d="M844.2,338h-18.3c-0.2,0-0.4-0.2-0.4-0.4c0-0.2,0.2-0.4,0.4-0.4H844l6.4-22.3c0-0.2,0.2-0.3,0.4-0.3h4
							c0.2,0,0.4,0.2,0.4,0.4c0,0.2-0.2,0.4-0.4,0.4H851l-6.4,22.3C844.5,337.8,844.4,338,844.2,338z"/>
					</g>
					<g>
						<path class="st10" d="M828.7,340.9c0,1.2-1,2.2-2.2,2.2s-2.2-1-2.2-2.2s1-2.2,2.2-2.2S828.7,339.7,828.7,340.9z"/>
						<circle class="st10" cx="842.6" cy="340.9" r="2.2"/>
					</g>
				</g>
			</g>
		</g>
	</g>
	<g>
		<path class="st29" d="M390.5,288.8h186.2l-22.3-16.5V170.4c0-6.7-5.4-12.2-12.2-12.2H390.5c-6.7,0-12.2,5.4-12.2,12.2v106.2
			C378.4,283.3,383.8,288.8,390.5,288.8z"/>
		<g>
			<g class="st31">
				<rect x="394.6" y="177.2" class="st10" width="85.1" height="8.1"/>
				<rect x="394.6" y="189.3" class="st10" width="85.1" height="8.1"/>
				<rect x="394.6" y="201.5" class="st10" width="85.1" height="8.1"/>
				<rect x="394.6" y="213.3" class="st10" width="85.1" height="8.1"/>
				<rect x="394.6" y="225.2" class="st10" width="85.1" height="8.1"/>
				<rect x="394.6" y="246.7" class="st10" width="85.1" height="8.1"/>
				<rect x="394.5" y="259.6" class="st10" width="145.3" height="8.1"/>
			</g>
			<g>
				<path class="st60" d="M490.7,239.6h44.8c2.4,0,4.3-1.9,4.3-4.3v-53.9c0-2.4-1.9-4.3-4.3-4.3h-44.8c-2.4,0-4.3,1.9-4.3,4.3v53.9
					C486.3,237.7,488.3,239.6,490.7,239.6z"/>
				<rect x="486.3" y="247.4" class="st59" width="53.5" height="6.7"/>
				<g>
					<path class="st10" d="M507.8,217.7h19.4c1.1,0,2.1-0.7,2.3-1.8l3.7-13.8c0.4-1.5-0.7-3.1-2.3-3.1H504c-1.6,0-2.8,1.5-2.3,3.1
						l3.7,13.8C505.7,217,506.7,217.7,507.8,217.7z"/>
					<g>
						<path class="st10" d="M504.4,220.8h23.4c0.3,0,0.5-0.2,0.5-0.5s-0.2-0.5-0.5-0.5h-23l-8.1-28.4c-0.1-0.2-0.2-0.3-0.5-0.3h-5.1
							c-0.3,0-0.5,0.2-0.5,0.5s0.2,0.5,0.5,0.5h4.7l8.1,28.4C504,220.6,504.2,220.8,504.4,220.8z"/>
					</g>
					<g>
						<path class="st10" d="M524.2,224.6c0,1.6,1.3,2.8,2.8,2.8c1.6,0,2.8-1.3,2.8-2.8s-1.3-2.8-2.8-2.8
							C525.4,221.8,524.2,223,524.2,224.6z"/>
						<path class="st10" d="M503.6,224.6c0,1.6,1.3,2.8,2.8,2.8c1.6,0,2.8-1.3,2.8-2.8s-1.3-2.8-2.8-2.8S503.6,223,503.6,224.6z"/>
					</g>
				</g>
			</g>
		</g>
	</g>
	<g>
		<ellipse class="st1" cx="821.3" cy="816.5" rx="82.1" ry="8.7"/>
		<path class="st50" d="M777.2,804.2c-0.7,1.3-4,4.4-8.6,6.5c-4.6,2-14.3,3-8.9,4.8c5.4,1.8,11.7,0.7,14.8,0.2
			c3.2-0.5,6.3-0.6,10-0.6c4.9,0,5-0.3,4.3-5.9C788,801.5,779.5,799.9,777.2,804.2z"/>
		<path class="st50" d="M866.8,801.4c-0.3,1.5,1.9,6.2-2,9.7c-3.9,3.4-12.9,7.1-6.9,7.2c5.9,0.1,11.6-1.2,14.6-2.7s0.6-3.8,4.3-5
			c4.9-1.6,3.9-5.2,1.3-7.4C874.9,795.8,867.7,796.4,866.8,801.4z"/>
		<path class="st36" d="M848,645.2c0,0,11.8-34.7-21.7-63.2c0,0-17.9,7.1-32.3,8c-11.3,0.7-17-0.4-17-0.4s-1,30.8-1,47.4L848,645.2z
			"/>
		<path class="st36" d="M773.3,702.8c-0.6-15.5,16.2-13.5,22.3-1.9c12.8,23.9-4.7,79.1-7,105.2c-2.4,0.9-6.4,1.7-8.9,0.6
			c-1.7-0.8-2.6-2.9-2.6-2.9C777.6,771.7,774,719.3,773.3,702.8z"/>
		<path class="st36" d="M795.1,705.1c-1.9,6.3-23.4,13-21.6-10c0.8-10.2,2.8-66.6,3.2-72s1.3-13.4,3.9-14.4
			c13.1-5,36.4,12.2,32.9,32.6C811.2,654.9,799.1,692,795.1,705.1z"/>
		<path class="st36" d="M828.8,713.9c-5.2-14.6,11.7-17.2,21.2-8.2c22.4,21.1,23.2,70.8,28.7,96.4c-3.1,2.1-8.1,2.9-9.8,2.8
			c-1.8-0.1-2.7-1.4-2.7-1.4C857.2,772.8,834.4,729.5,828.8,713.9z"/>
		<path class="st36" d="M851,709.1c0.6,6.6-17.3,20.2-24.3-1.8c-3.1-9.8-16.5-67.4-18.2-72.6c-1.7-5.2-1.2-15.9,0.8-17.8
			c10.3-9.5,33.6-1.1,38.1,19.1C850.4,649.5,849.8,695.5,851,709.1z"/>
		<g>
			<g>
				<path class="st61" d="M758.9,456.8c0.6-0.6,1.2-1.3,1.8-2c4.2-5.4,4.9-10.2,8.8-16.5c0.6-0.9,1.4-3.3,2.9-5.5
					c1.6-2.3,5.4-4.7,6.4-5.2c1.8-1,0.3,3.1,0.3,3.1s1.6-2.3,3.1-2.1c0.6,0.1,0.7,3.5,0.7,4.1c0.1,4.7-1,9.5-3.2,13.7
					c-0.5,1-1.1,2-1.1,3.1c1.4,0,2.6-1,3.7-1.8c1.1-0.8,2.5-1.6,3.9-1.1c-0.2,0.6-0.5,1.1-0.7,1.6c-1.7,3.1-3.6,6.5-6.8,8
					c-1.9,0.9-4.1,1.1-6,2.1c-3.4,1.8-5,6-8.5,7.7"/>
			</g>
			<path class="st62" d="M780.1,458.4l-12.3-5.2c-0.3-0.1-0.5-0.5-0.3-0.8l9.9-23.7c0.1-0.3,0.5-0.5,0.8-0.3l12.3,5.2
				c0.3,0.1,0.5,0.5,0.3,0.8l-9.9,23.7C780.8,458.4,780.5,458.6,780.1,458.4z"/>
			
				<rect x="767.5" y="437.5" transform="matrix(0.3859 -0.9225 0.9225 0.3859 69.4042 991.5815)" class="st63" width="24.1" height="12.3"/>
			<path class="st64" d="M789.9,478.7c0,0-8.6,0.4-16.4,2.8c-11.6,3.5-15.6,8.9-19.7,11.1c7.8-9.9,16.5-31,16.5-31
				s-10.5-8.6-11.7-6.6s-45.3,53.6-43.9,62c0.6,3.4,5.7,6.8,10.2,6.7c12.5-0.4,27-5,42.2-10c6.7-2.2,8.8,2.5,8.8,2.5"/>
			<path class="st65" d="M753.8,492.6c0,0-5.6,11.2-7.2,11.9c-1.7,0.7,4-2.3,7.2-5.6c3.1-3.2,7.4-11.7,7.4-11.7
				C759.5,487.9,753.8,492.6,753.8,492.6z"/>
			<g>
				<path class="st61" d="M771.2,438.3c0.5,0.4,0.7,1.1,0.8,1.8c0.4,2.5,0.7,5.1-0.2,7.4c-0.6,1.5-1.8,2.7-3,3.8
					c-1.4,1.2-2.9,2.3-4.5,3.1"/>
			</g>
			<g>
				<path class="st66" d="M790.1,419.7c-2.9,0.8-4.5,4.7-5.5,7.3c-1.2,3.1-1.8,6.5-2.2,9.8c-0.3,2.3-0.4,4.7,0.5,6.9
					c0.5,1.1,1.2,2,1.9,3c0.4,0.5,0.8,1.1,1.4,1.5c0.6,0.4,1.3,0.6,1.9,0.3c0.9-0.4,1.3-1.4,1.5-2.4c1.7-6.2,3.6-12.4,7-17.8"/>
			</g>
			<g>
				<path class="st61" d="M786.9,439.3c-0.1-2-2.1-3.3-3.9-1.2c-1.5,1.7-1.9,4.9-2,7.3c-0.1,2.8,2.1,3.4,3.9,3.8"/>
			</g>
			<path class="st64" d="M767.2,488.8c3.6-4.2,15.2-11,30.6-10.6c10.6,0.3,39.6,2.1,42.8,9.2c1.7,3.6,3.4,40.8,1,53.7
				c-1.8,9.6-6.5,33.5-6.5,39.3s3.1,8.2,1.7,9.9c-3.2,3.8-25.4,5.3-35.8,5.3c-9.2,0-25-2.5-25.8-5.4c-1.2-4.4,1.8-4.2,2.2-8.8
				s1.6-34.5-0.1-39.4c-3.1-8.8-4.6-23.3-7-29.8C768.4,507.2,763.5,493,767.2,488.8z"/>
			<path class="st65" d="M833.4,518.9c1.1,2.3,8.6,14.3,8.6,14.3l0.3,1.4c-0.2,2.5-0.4,4.7-0.8,6.4c-1.8,9.6-6.5,33.5-6.5,39.3
				s3,8.1,1.7,9.9c-2.6,3.5-44.3,11.2-42.2,1.6c0.2-0.9,35-27.5,35.2-28.4c1.6-7.6,3-13.1,3.7-18.7
				C835.1,531.5,832.3,516.6,833.4,518.9z"/>
			<path class="st67" d="M789.4,465c0,0-0.1,12.1-0.6,12.6s-2.9,1.6-2.9,1.6s1.7,10.5,4.3,9.7s20-9.6,20-9.6s-2.5-1-2.5-2
				s2.3-20,2.3-20"/>
			<path class="st67" d="M801.5,421c-2.5,0.7-9.2-0.7-11.1,2.1c-1.8,2.8-3.5,9.5-4.1,11.3c-1.4,3.7-2.3,7.6-3.3,11.4
				c-1.3,4.9-3.5,14,1.4,18.1c1.4,1.2,2,1.6,3.7,1.9c2.3,0.4,4.6,0.9,6.8,1.3c3.5,0.6,7.5,1.4,11,0.2c4.7-1.5,7.3-8,8.5-12.4
				l6.9-25.1L801.5,421z"/>
			<path class="st40" d="M788.9,493.6c0,0-1,47.2-2.9,75.9l6.9,9.6l4.8-12c0,0,2-34.6-4.5-73.2L788.9,493.6z"/>
			<path class="st40" d="M787.3,489.5l0.2,0.6c0.3,1.2,0.8,2.4,1.4,3.5l0,0l4.3,0.3c0,0,2.9-1.5,3.3-3.1c0.4-1.6-4.8-4.3-4.8-4.3
				l-0.6,0.2C789.7,487.3,788.4,488.2,787.3,489.5L787.3,489.5z"/>
			<path class="st10" d="M808.1,474.4c0,0,2.7,1.7,4.9,4.9c-2.2,5-7.1,13.9-12.6,18c-2.5-6.8-8.6-10.8-8.6-10.8
				S806.6,483.9,808.1,474.4z"/>
			<path class="st10" d="M791.7,486.5c0,0-5.3,2.1-8.5,8.1c0,0-1-8,1.2-14.9c0,0,3.5-4.5,4.7-4.6
				C788.6,480.7,791.7,486.5,791.7,486.5z"/>
			<g>
				<g>
					<path class="st61" d="M792.4,591.9c-5.3,0.8-7.2,2.8-10.2,5.7c-0.2,0.2-0.5,0.5-0.4,0.9s0.6,0.6,1,0.7c2.5,0.4,2.9-1.2,5.1-2.1
						c1.5-0.6,3.1-1.3,4.6-2"/>
				</g>
				<g>
					<g>
						<path class="st68" d="M774.5,553.5l18.7,59.9c0.5,1.6-0.4,3-2,3l-39,3.4c-1.4,0-2.8-1.1-3.3-2.5l-20.1-59
							c-0.5-1.6,1.8-3.9,3.4-3.9l39-3.4C772.6,550.9,774,552,774.5,553.5z"/>
					</g>
					<g>
						<path class="st69" d="M773.2,555l18.4,59c0.5,1.6-0.4,3-2,3l-39,3.4c-1.4,0-2.8-1.1-3.3-2.5l-18.4-59c-0.5-1.6,0.4-3,2-3
							l39-3.4C771.3,552.5,772.7,553.6,773.2,555z"/>
					</g>
					<g>
						<polygon class="st10" points="742,553.1 743.4,558.3 761.7,556.7 760.2,551.5 						"/>
						<g>
							<g>
								<path class="st10" d="M745.5,548.3c0.4,1.2,1.8,5.9,1.8,5.9l8.7-0.8l-1.8-5.9c-0.8-2.5-3.4-4.4-5.8-4.2
									C746,543.6,744.7,545.8,745.5,548.3z M747.4,548.2c-0.4-1.4,0.3-2.7,1.6-2.8s2.8,0.9,3.2,2.3c0.4,1.4-0.3,2.7-1.6,2.8
									C749.3,550.7,747.8,549.6,747.4,548.2z"/>
							</g>
						</g>
					</g>
				</g>
				<g>
					<path class="st67" d="M807.3,587.7c-4.1,0.9-15,4.1-16.2,4.7c-1.4,0.6-5.9,4.1-7,5.1c-4.1,4.1-2,6-3.6,11.6
						c-0.1,0.3-0.1,0.6-0.1,0.9c0,0.6,0.8,1.1,1.6,0.5c0.4,0.7,1.7,0.3,2.3-0.5c0,0.6,0.8,0.9,2,0.2c0.7-0.4,0.6-0.3,2.1-1.7
						c1.1-1,2.4-1.8,4.4-2.7c1.4-0.6,3.1-1.2,4.3-2c1.7-1.1,4.6-1.4,6.1-6.1c0.3-1,1.3-1.7,2.3-2.3c2.2-1.4,4.4-2.8,6.7-4.2"/>
				</g>
				<path class="st64" d="M832.4,511c1.7,6.2,9,49.1,9,49.1l-40.7,29.5l3.4,8.9c0,0,48.7-16.3,52.5-27.5s3.7-61.6-9.9-79.3
					c-4.3-5.6-12.9-8.5-12.9-8.5"/>
				<g>
					<path class="st61" d="M790.7,603.2l-1.7,1.4c-0.6,0.5-1.1,0.9-1.6,1.5c-0.9,1.1-1.8,2.3-2.8,3.4l1.3-1.8
						c0.4-0.6,0.9-1.2,1.4-1.7c0.5-0.6,1-1.1,1.6-1.5C789.5,604,790.1,603.6,790.7,603.2z"/>
				</g>
				<g>
					<path class="st61" d="M788.5,600.5c-0.8,0.5-1.3,1.3-1.9,2c-0.5,0.8-1.1,1.5-1.5,2.3c-0.7,1.7-1.7,3.3-2.7,4.9
						c0.8-1.7,1.7-3.3,2.5-5c0.4-0.9,1-1.6,1.6-2.3C787,601.7,787.7,601,788.5,600.5z"/>
				</g>
				<g>
					<path class="st61" d="M785.9,598.3c-0.5,0.7-1.1,1.4-1.7,2.1c-0.6,0.7-0.9,1.5-1.3,2.3c-0.7,1.6-1.3,3.4-1.7,5.1
						c0.2-1.8,0.8-3.5,1.5-5.2c0.4-0.8,0.7-1.7,1.4-2.3C784.7,599.6,785.3,599,785.9,598.3z"/>
				</g>
			</g>
			<g>
				<path class="st70" d="M817,450.5c-1.6-0.9-2.8-1.9-3.9-0.4c-0.6,0.8-0.9,1.9-1.8,2.2c-0.9,0.3-1.9-0.6-2.1-1.5
					c-0.2-0.9,0.1-1.9,0.4-2.9c0.6-2.1,1.3-4.1,1.9-6.2c0.6-2,1.2-4.2,0.4-6.2c-0.4-1-1.1-1.8-2-2.5c-2.6-2.3-6.1-3.4-9.5-4.1
					s-6.9-1.1-10.2-2.1c-1.4-0.4-2.8-1-3.9-2c-1.8-1.5-2.7-3.9-2.8-6.3c0-2.4,0.8-4.7,2-6.7c0.3,0.8,0.6,1.6,1,2.3
					c0.4-1.1,1.1-2.1,1.9-2.9c1,5.5,24.3,3.7,29.7,6.1c3.8,1.7,6.9,2.8,6.8,8.9c0.1,0.4,0.4,0.7,0.7,1c3.3,3.1,4.8,6.8,5.2,12.4
					c0.5,6.8-3.4,14.1-7.3,19.7c-1,1.4-1.5,2.4-2.9,3.4s-3.7,1.5-5.4,1.2s-5-0.2-5-1.9c0-1.2,2.6-3.4,3.3-4.4"/>
			</g>
			<g>
				<path class="st67" d="M810.9,457c0,0-0.3,1.1,0.4,2c0.6,0.8,1.9,0.7,2.8,0.4c2.5-0.8,4.2-3.2,4.7-5.7c0.5-2.9-1-5.9-3.7-5.1
					c-1.6,0.4-2.6,2.2-2.5,3.9"/>
			</g>
			<g>
				<path class="st61" d="M789.4,466l7.5,1.4c0,0-2.5,2.8-7.6,2.8"/>
			</g>
		</g>
	</g>
	<g class="st71">
		<g>
			<g>
				<polyline class="st27" points="202.4,337.8 212.4,342.9 207.4,330.6 				"/>
			</g>
			<path class="st27" d="M171.3,322.1c0,11,9.5,20,21.2,20s21.2-8.9,21.2-20c0-11-9.5-20-21.2-20S171.3,311.1,171.3,322.1z"/>
		</g>
		<path class="st72" d="M187.3,315.5v14.3c0,1.2,1.2,1.9,2.2,1.3l12.4-7.1c1-0.6,1-2,0-2.6l-12.4-7.1
			C188.6,313.7,187.3,314.4,187.3,315.5z"/>
	</g>
	<g class="st71">
		<g>
			<g>
				<polyline class="st27" points="895.3,489.7 885.3,494.8 890.3,482.5 				"/>
			</g>
			<path class="st27" d="M926.4,474c0,11-9.5,20-21.2,20s-21.2-8.9-21.2-20c0-11,9.5-20,21.2-20S926.4,463,926.4,474z"/>
		</g>
		<g>
			<g>
				<g>
					<path class="st72" d="M901.4,483.6c4.6,0.1,9.3,0.1,13.5-0.1c1.3-0.1,2.5-2.1,0.9-2.7c0.7-0.3,1.4-0.7,1.7-1.4
						c0.3-0.7-0.1-1.6-0.8-1.8c1.6,0.4,2.2-2,1-2.8c0.7-0.5,1.2-1.2,1.3-2s-0.2-1.7-1-2.1c-0.5-0.3-1.1-0.3-1.7-0.3
						c-1.9,0-3.8,0-5.8,0c0.5-2.8,0.7-5.9-0.8-8.4c-0.5-0.7-1.7-1.6-2.7-1.1c-0.9,0.5-0.7,1.9-0.6,2.7c0.2,3.5-1.9,7.1-5.2,8.7
						C901.2,472.3,901.4,479.8,901.4,483.6z"/>
				</g>
			</g>
			<rect x="892.8" y="472.3" class="st72" width="7" height="11.3"/>
		</g>
	</g>
	<g class="st71">
		<g>
			<g>
				<polyline class="st27" points="574.9,316.4 582.2,308.5 572.2,310.4 				"/>
			</g>
			<path class="st27" d="M547.8,318.2c0,8,6.9,14.5,15.4,14.5s15.4-6.5,15.4-14.5s-6.9-14.5-15.4-14.5S547.8,310.2,547.8,318.2z"/>
		</g>
		<g>
			<g>
				<g>
					<path class="st72" d="M560.2,325.1c3,0.1,6.1,0.1,8.9-0.1c0.9-0.1,1.6-1.5,0.6-2c0.4-0.2,0.9-0.5,1.1-1c0.2-0.5,0-1.2-0.5-1.3
						c1,0.3,1.5-1.5,0.6-2c0.4-0.4,0.8-0.9,0.9-1.5c0.1-0.6-0.1-1.2-0.6-1.5c-0.3-0.2-0.7-0.2-1.1-0.2c-1.3,0-2.5,0-3.8,0
						c0.3-2.1,0.4-4.3-0.6-6.1c-0.3-0.5-1.1-1.2-1.8-0.8c-0.6,0.4-0.4,1.4-0.4,2c0.1,2.6-1.3,5.1-3.4,6.3
						C560.1,316.9,560.2,322.3,560.2,325.1z"/>
				</g>
			</g>
			<rect x="554.5" y="316.9" class="st72" width="4.6" height="8.2"/>
		</g>
	</g>
	<g class="st71">
		<path class="st27" d="M646.4,210.5c3.1-3.9,5-8.8,5-14.1c0-12.5-10.1-22.7-22.7-22.7c-12.5,0-22.7,10.1-22.7,22.7
			c0,12.5,10.1,22.7,22.7,22.7c4.6,0,9-1.4,12.6-3.8l8.8,4.7L646.4,210.5z"/>
		<path class="st10" d="M619.1,190.2c2.2-2.1,5.7-2.1,7.8,0.1l1.4,1.4l1.5-1.4c2.2-2.1,5.7-2.1,7.8,0.1c2.1,2.2,2.1,5.7-0.1,7.8
			l-5.4,5.3l0,0c-0.9,0.8-1.9,1.3-3,1.5c-1.7,0.3-3.5-0.3-4.8-1.6L619,198C616.9,195.8,616.9,192.3,619.1,190.2z"/>
	</g>
</g>
</svg>
