<svg width="506" height="503" viewBox="0 0 506 503" fill="none" xmlns="http://www.w3.org/2000/svg">
<path d="M433.671 263.313C338.694 208.487 185.233 208.487 90.8772 263.313C-3.47872 318.139 -2.97409 407.05 91.9916 461.876C186.957 516.702 340.44 516.713 434.795 461.876C529.151 407.039 528.636 318.15 433.671 263.313Z" fill="#0276F9" fill-opacity="0.07"/>
<path d="M238.068 460.847L95.9922 378.802L124.388 362.338L266.495 444.435L238.068 460.847Z" fill="#2A9DF4" fill-opacity="0.23"/>
<path d="M384.541 382.417V382.407L302.958 335.308H302.969L221.386 288.209L139.804 241.109L58.7578 288.209L140.33 335.308L221.912 382.407V382.417L303.495 429.516H303.484L385.066 476.616L466.123 429.516L384.541 382.417Z" fill="#CDE2DA"/>
<path d="M446.137 424.03L441.279 420.035C440.975 412.381 440.68 404.265 441.952 396.748C443.224 389.231 446.158 381.714 451.603 376.279C453.864 373.997 456.671 372.073 459.867 371.695C463.063 371.316 466.616 372.936 467.72 375.953C468.824 378.97 467.131 382.545 465.281 385.352C461.349 391.334 456.65 396.79 452.791 402.825C448.732 409.178 446.435 416.496 446.137 424.03Z" fill="#0276F9"/>
<path d="M446.138 425.071L450.996 429.066C454.591 421.486 459.543 414.453 466.387 409.596C468.828 408.076 471.11 406.315 473.199 404.339C475.155 402.237 476.522 399.335 475.954 396.528C475.229 392.912 471.391 390.525 467.701 390.504C464.011 390.483 460.563 392.354 457.714 394.709C448.914 401.848 443.931 413.98 446.138 425.071Z" fill="#0276F9"/>
<path opacity="0.3" d="M446.138 425.071L450.996 429.066C454.591 421.486 459.543 414.453 466.387 409.596C468.828 408.076 471.11 406.315 473.199 404.339C475.155 402.237 476.522 399.335 475.954 396.528C475.229 392.912 471.391 390.525 467.701 390.504C464.011 390.483 460.563 392.354 457.714 394.709C448.914 401.848 443.931 413.98 446.138 425.071Z" fill="black"/>
<path d="M443.397 422.201C443.285 422.198 443.178 422.152 443.099 422.071C443.02 421.99 442.977 421.882 442.977 421.77C443.176 410.416 445.731 389.431 460.576 376.563C460.618 376.527 460.667 376.499 460.72 376.481C460.772 376.463 460.828 376.456 460.884 376.46C460.94 376.464 460.994 376.479 461.044 376.504C461.094 376.529 461.138 376.563 461.175 376.605C461.211 376.647 461.239 376.696 461.257 376.749C461.275 376.802 461.282 376.858 461.278 376.913C461.274 376.969 461.259 377.023 461.234 377.073C461.209 377.123 461.175 377.168 461.133 377.204C454.825 382.64 444.312 395.676 443.818 421.822C443.807 421.927 443.758 422.023 443.681 422.093C443.603 422.163 443.502 422.201 443.397 422.201Z" fill="white"/>
<path d="M448.49 427.426C448.435 427.42 448.381 427.404 448.332 427.378C448.283 427.352 448.24 427.316 448.204 427.273C448.169 427.23 448.143 427.181 448.127 427.127C448.111 427.074 448.106 427.018 448.112 426.963C449.1 416.755 453.558 402.688 469.138 393.678C469.236 393.624 469.351 393.611 469.459 393.64C469.567 393.67 469.659 393.74 469.716 393.836C469.744 393.884 469.763 393.937 469.77 393.993C469.777 394.048 469.773 394.104 469.759 394.158C469.744 394.212 469.719 394.262 469.684 394.306C469.65 394.35 469.607 394.387 469.559 394.414C454.293 403.235 449.92 417.028 448.942 427.005C448.944 427.064 448.933 427.122 448.911 427.176C448.888 427.23 448.854 427.278 448.812 427.318C448.769 427.358 448.718 427.388 448.663 427.407C448.607 427.425 448.548 427.432 448.49 427.426Z" fill="white"/>
<path d="M65.3537 239.25C63.4508 237.431 61.2746 235.444 61.1484 232.816C61.1552 231.638 61.5212 230.491 62.1975 229.527C62.8738 228.563 63.8283 227.829 64.9332 227.422C66.0484 227.044 67.2283 226.895 68.4025 226.984C69.5766 227.072 70.7209 227.397 71.7668 227.938C73.8495 229.036 75.7046 230.52 77.2336 232.311C81.8408 237.429 85.1759 243.562 86.9679 250.211C88.7599 256.861 88.9583 263.839 87.5471 270.579C87.5043 271.035 87.3627 271.476 87.1321 271.872C86.9015 272.268 86.5875 272.609 86.2119 272.871C84.9398 273.544 83.489 272.356 82.6269 271.21C80.728 268.684 79.3032 265.834 78.4216 262.799C77.6542 260.245 78.0011 257.438 77.0444 255.03C74.6999 249.164 69.8849 243.581 65.3537 239.25Z" fill="#0276F9"/>
<path d="M85.1575 269.422C85.0909 269.424 85.0246 269.412 84.9627 269.387C84.9009 269.362 84.8447 269.325 84.7975 269.278C84.7504 269.231 84.7132 269.174 84.6884 269.113C84.6635 269.051 84.6515 268.984 84.6529 268.918C84.5905 261.535 82.8865 254.259 79.6644 247.617C76.4423 240.974 71.7828 235.132 66.0235 230.513C65.9706 230.472 65.9263 230.421 65.8934 230.362C65.8604 230.304 65.8394 230.24 65.8316 230.173C65.8238 230.107 65.8293 230.039 65.8478 229.975C65.8663 229.91 65.8974 229.85 65.9394 229.798C65.9795 229.745 66.0298 229.701 66.0872 229.669C66.1447 229.636 66.2081 229.615 66.2738 229.607C66.3395 229.599 66.4061 229.605 66.4697 229.623C66.5332 229.641 66.5924 229.672 66.6438 229.714C72.5268 234.426 77.2861 240.389 80.5758 247.17C83.8656 253.952 85.6031 261.381 85.6622 268.918C85.6636 268.984 85.6515 269.051 85.6267 269.113C85.6018 269.174 85.5647 269.231 85.5176 269.278C85.4704 269.325 85.4142 269.362 85.3523 269.387C85.2905 269.412 85.2242 269.424 85.1575 269.422Z" fill="white"/>
<path d="M78.9025 289.607C75.7485 290.658 71.6694 289.964 69.8191 287.157C67.6323 283.856 68.999 278.747 66.0764 276.098C64.4468 274.605 62.0393 274.457 59.8736 273.995C57.7079 273.532 55.2898 272.355 54.9744 270.158C54.5434 267.256 58.1284 264.848 57.6132 261.947C57.0981 259.045 53.1767 258.204 52.0097 255.555C50.9584 253.147 52.8297 250.225 55.3108 249.32C57.792 248.416 60.5674 249.037 63.0275 249.962C65.4876 250.887 67.9057 252.064 70.5234 252.411C73.1412 252.758 76.3898 252.212 78.3978 254.083C81.0682 256.585 79.5438 261.358 81.6044 264.375C82.9921 266.404 85.6099 267.109 87.6074 268.581C88.8498 269.48 89.8581 270.665 90.5478 272.035C91.2375 273.405 91.5883 274.921 91.5709 276.455C91.5078 279.788 89.7521 282.185 87.2499 284.098C84.5796 286.096 82.1931 288.545 78.9025 289.607Z" fill="#0276F9"/>
<path opacity="0.2" d="M78.9025 289.607C75.7485 290.658 71.6694 289.964 69.8191 287.157C67.6323 283.856 68.999 278.747 66.0764 276.098C64.4468 274.605 62.0393 274.457 59.8736 273.995C57.7079 273.532 55.2898 272.355 54.9744 270.158C54.5434 267.256 58.1284 264.848 57.6132 261.947C57.0981 259.045 53.1767 258.204 52.0097 255.555C50.9584 253.147 52.8297 250.225 55.3108 249.32C57.792 248.416 60.5674 249.037 63.0275 249.962C65.4876 250.887 67.9057 252.064 70.5234 252.411C73.1412 252.758 76.3898 252.212 78.3978 254.083C81.0682 256.585 79.5438 261.358 81.6044 264.375C82.9921 266.404 85.6099 267.109 87.6074 268.581C88.8498 269.48 89.8581 270.665 90.5478 272.035C91.2375 273.405 91.5883 274.921 91.5709 276.455C91.5078 279.788 89.7521 282.185 87.2499 284.098C84.5796 286.096 82.1931 288.545 78.9025 289.607Z" fill="black"/>
<path d="M77.4549 266.889V266.837C76.9713 266.143 76.4772 265.46 75.9515 264.797C71.21 258.926 64.7809 254.651 57.5324 252.549C57.4682 252.529 57.4005 252.521 57.3333 252.528C57.2662 252.534 57.2011 252.554 57.142 252.587C57.0829 252.619 57.0311 252.663 56.9897 252.717C56.9484 252.77 56.9184 252.831 56.9016 252.896C56.8656 253.026 56.8818 253.165 56.9466 253.282C57.0114 253.4 57.1198 253.488 57.2485 253.527C64.2862 255.572 70.5254 259.73 75.121 265.439C75.2681 265.617 75.3943 265.807 75.531 265.985C69.7908 263.883 63.9665 265.081 60.8125 267.594C60.7603 267.636 60.717 267.687 60.685 267.746C60.653 267.805 60.633 267.869 60.6262 267.936C60.6193 268.002 60.6258 268.07 60.6451 268.134C60.6645 268.198 60.6963 268.257 60.7389 268.309C60.7846 268.368 60.8435 268.416 60.9111 268.449C60.9786 268.482 61.0528 268.499 61.1279 268.498C61.2463 268.496 61.3609 268.456 61.4538 268.382C64.5447 265.891 70.9157 264.787 76.7084 267.583C80.325 272.881 82.4493 279.054 82.8587 285.456C82.8667 285.584 82.9234 285.704 83.0172 285.792C83.111 285.88 83.2348 285.929 83.3633 285.929C83.4296 285.925 83.4945 285.908 83.5542 285.879C83.6139 285.849 83.6672 285.809 83.7112 285.759C83.7552 285.709 83.7888 285.651 83.8103 285.588C83.8318 285.525 83.8407 285.459 83.8364 285.393C83.4187 278.762 81.2135 272.368 77.4549 266.889Z" fill="white"/>
<path d="M140.905 218.938L74.5138 257.521L74.4297 289.944L141.252 328.517L207.632 289.944L207.727 257.521L140.905 218.938Z" fill="#F8D637"/>
<path opacity="0.2" d="M207.728 257.521L140.906 218.938L74.5156 257.521L141.338 296.094L207.728 257.521Z" fill="white"/>
<path opacity="0.3" d="M141.334 296.094L141.25 328.517L207.63 289.944L207.725 257.521L141.334 296.094Z" fill="black"/>
<path d="M220.225 223.312L153.834 261.896L153.75 335.741L220.572 374.324L286.963 335.741L287.047 261.896L220.225 223.312Z" fill="#F8D637"/>
<path opacity="0.2" d="M287.049 261.896L220.227 223.312L153.836 261.896L220.658 300.479L287.049 261.896Z" fill="white"/>
<path opacity="0.3" d="M220.654 300.478L220.57 374.323L286.961 335.739L287.045 261.895L220.654 300.478Z" fill="black"/>
<path d="M301.459 228.012L235.068 266.585L234.984 382.43L301.806 421.013L368.187 382.43L368.281 266.585L301.459 228.012Z" fill="#F8D637"/>
<path opacity="0.2" d="M368.283 266.585L301.461 228.012L235.07 266.585L301.892 305.168L368.283 266.585Z" fill="white"/>
<path opacity="0.3" d="M301.897 305.167L301.812 421.012L368.193 382.429L368.287 266.584L301.897 305.167Z" fill="black"/>
<path d="M301.506 227.707L235.115 266.28L235.031 382.272L301.853 420.855L368.233 382.272L368.328 266.28L301.506 227.707Z" fill="#F8D637"/>
<path opacity="0.2" d="M368.33 266.28L301.508 227.707L235.117 266.28L301.939 304.863L368.33 266.28Z" fill="white"/>
<path opacity="0.3" d="M301.936 304.863L301.852 420.855L368.232 382.271L368.327 266.279L301.936 304.863Z" fill="black"/>
<path d="M384.577 216.373L318.196 254.956L318.102 430.443L384.923 469.026L451.314 430.443L451.398 254.956L384.577 216.373Z" fill="#F8D637"/>
<path opacity="0.2" d="M451.398 254.956L384.576 216.373L318.195 254.956L385.017 293.54L451.398 254.956Z" fill="white"/>
<path opacity="0.3" d="M385.024 293.54L384.93 469.027L451.321 430.443L451.405 254.957L385.024 293.54Z" fill="black"/>
<path d="M263.205 262.63L258.621 259.561L224.032 329.768L228.574 332.838L248.886 321.115C248.003 354.116 238.846 370.664 229.962 380.168L228.543 380.525L227.712 380.715L226.051 381.072L225.305 381.23L224.032 381.461L223.097 381.619L221.751 381.829L220.857 381.966C220.363 382.039 219.806 382.092 219.354 382.155L218.566 382.26L216.463 382.47H216.242C215.475 382.544 214.697 382.596 213.919 382.649C212.93 382.723 211.932 382.765 210.922 382.807H210.018H207.821H206.927C205.718 382.807 204.499 382.807 203.279 382.744H202.649C201.513 382.744 200.378 382.639 199.232 382.565H198.654C197.487 382.481 196.32 382.386 195.142 382.26L194.301 382.176C193.25 382.06 192.198 381.945 191.147 381.808L190.527 381.724C189.381 381.566 188.235 381.398 187.079 381.209L186.248 381.062C185.302 380.904 184.366 380.736 183.42 380.557L182.537 380.389C181.412 380.168 180.276 379.926 179.131 379.674L178.615 379.558C177.638 379.337 176.649 379.096 175.661 378.854L174.61 378.601L171.971 377.908L171.162 377.687C170.037 377.371 168.901 377.046 167.766 376.699L166.977 376.457C166.108 376.197 165.236 375.924 164.36 375.637L163.308 375.279L160.753 374.407L159.86 374.102C158.738 373.702 157.614 373.292 156.485 372.872L155.875 372.63C154.94 372.283 154.004 371.915 153.068 371.579L152.017 371.137L149.599 370.138L148.548 369.686L145.394 368.33L145.099 368.204C143.964 367.689 142.818 367.153 141.683 366.627L140.631 366.154C139.811 365.765 138.981 365.365 138.161 364.955L137.025 364.398C136.153 363.967 135.291 363.526 134.418 363.073L133.545 362.632L130.108 360.803C129.477 360.477 128.856 360.13 128.236 359.751C127.91 359.573 127.584 359.404 127.269 359.215L124.483 357.649L124.399 357.596L95.9922 374.186V378.801C128.268 397.378 159.881 406.22 187.457 404.39C200.567 403.528 211.753 400.322 220.857 394.855C220.637 394.992 220.416 395.139 220.185 395.265L248.675 378.707C251.204 377.241 253.61 375.571 255.866 373.713C256.171 373.471 256.487 373.208 256.792 372.945L257.065 372.714L257.79 372.073L258.043 371.852L258.999 370.979L259.157 370.822L259.967 370.054L260.261 369.77L261.06 368.961L261.249 368.761C261.575 368.425 261.901 368.088 262.227 367.71C262.3 367.615 262.385 367.531 262.469 367.436C262.721 367.163 262.973 366.879 263.226 366.585L263.509 366.248C263.825 365.891 264.13 365.523 264.435 365.145L264.498 365.071C264.824 364.671 265.15 364.261 265.465 363.841C265.56 363.715 265.654 363.599 265.738 363.473C265.991 363.147 266.232 362.811 266.485 362.474L266.748 362.106L267.694 360.719C267.743 360.654 267.788 360.588 267.83 360.519L268.43 359.604L268.608 359.31L269.06 358.563C269.25 358.258 269.439 357.954 269.618 357.638L270.07 356.85L270.606 355.882L271.058 355.041C271.226 354.705 271.405 354.369 271.573 353.99L272.015 353.117C272.088 352.949 272.162 352.802 272.246 352.644C272.33 352.487 272.509 352.077 272.635 351.782L272.824 351.383C273.098 350.773 273.371 350.142 273.644 349.501C273.697 349.364 273.76 349.207 273.823 349.07C274.033 348.534 274.254 348.019 274.464 347.451L274.664 346.915C274.664 346.789 274.759 346.673 274.811 346.557L275.032 345.916C275.242 345.338 275.442 344.759 275.642 344.171C275.757 343.834 275.873 343.487 275.978 343.119C276.167 342.531 276.357 341.942 276.535 341.332C276.598 341.111 276.672 340.912 276.735 340.691C276.798 340.47 276.819 340.365 276.872 340.207C277.008 339.724 277.145 339.219 277.282 338.714C277.418 338.21 277.503 337.873 277.618 337.442C277.734 337.011 277.87 336.391 277.997 335.865C278.081 335.55 278.154 335.245 278.228 334.919C278.228 334.793 278.291 334.646 278.312 334.52C278.417 334.057 278.512 333.594 278.617 333.132L278.932 331.597C279.027 331.113 279.111 330.63 279.195 330.146C279.279 329.663 279.342 329.421 279.405 329.095C279.405 328.916 279.458 328.737 279.49 328.559L279.71 327.192C279.805 326.614 279.889 326.025 279.973 325.426C280.057 324.826 280.11 324.48 280.173 323.996C280.173 323.67 280.268 323.355 280.31 323.018L280.404 322.146C280.457 321.673 280.52 321.21 280.562 320.726C280.635 320.085 280.699 319.423 280.762 318.771C280.814 318.287 280.856 317.804 280.898 317.31L280.961 316.637C280.961 316.164 281.035 315.669 281.067 315.186C281.098 314.702 281.14 314.261 281.161 313.788C281.161 312.999 281.256 312.19 281.298 311.38C281.298 310.96 281.298 310.55 281.361 310.129C281.361 310.045 281.361 309.961 281.361 309.877C281.361 308.825 281.434 307.7 281.466 306.597V306.334C281.466 305.125 281.466 303.884 281.466 302.633C281.466 302.507 281.466 302.391 281.466 302.265L298.024 292.709L263.205 262.63Z" fill="#455A64"/>
<path d="M263.202 262.63L228.613 332.838L224.072 329.768L258.618 259.561L263.202 262.63ZM222.484 393.814C223.105 393.415 223.704 393.005 224.303 392.574L225.018 392.069C225.806 391.491 226.584 390.902 227.341 390.282L228.256 389.504L228.529 389.272L229.139 388.747L229.255 388.642L229.507 388.421C229.822 388.137 230.148 387.843 230.464 387.538L230.632 387.38L230.884 387.149L231.441 386.613L231.725 386.329C231.788 386.266 231.852 386.192 231.925 386.129L232.524 385.53L232.714 385.33L233.376 384.626L233.691 384.289L233.933 384.026L234.69 383.164L234.984 382.828L235.279 382.481L235.91 381.724C235.914 381.7 235.914 381.675 235.91 381.65C236.004 381.545 236.088 381.43 236.172 381.324C236.414 381.03 236.646 380.725 236.887 380.42L237.161 380.063L237.718 379.295L237.897 379.054L238.159 378.686L238.696 377.908L239.116 377.308C239.156 377.234 239.201 377.164 239.253 377.098L239.6 376.541C239.747 376.331 239.884 376.11 240.02 375.889C240.157 375.668 240.325 375.395 240.483 375.143C240.641 374.89 240.851 374.533 241.03 374.217C241.208 373.902 241.334 373.692 241.492 373.429L241.839 372.798L242.028 372.462L242.47 371.621C242.586 371.41 242.691 371.19 242.806 370.969L242.996 370.601C243.143 370.317 243.279 370.023 243.427 369.728L243.5 369.571L244.057 368.404C244.12 368.267 244.173 368.13 244.236 368.004C244.415 367.615 244.583 367.205 244.762 366.806C244.856 366.574 244.961 366.354 245.056 366.122C245.151 365.891 245.182 365.817 245.235 365.67C245.456 365.145 245.666 364.619 245.876 364.072C245.95 363.883 246.013 363.704 246.086 363.526C246.16 363.347 246.244 363.095 246.328 362.874L246.454 362.527C246.654 361.949 246.864 361.37 247.054 360.782C247.148 360.529 247.232 360.256 247.316 359.993L247.401 359.751C247.59 359.163 247.769 358.574 247.958 357.964V357.891C248.063 357.544 248.168 357.197 248.263 356.839C248.357 356.482 248.536 355.851 248.673 355.346C248.673 355.346 248.673 355.262 248.673 355.21C248.767 354.831 248.872 354.463 248.967 354.074C249.104 353.559 249.23 353.023 249.356 352.497L249.671 351.152C249.777 350.699 249.871 350.226 249.966 349.764C250.029 349.48 250.081 349.196 250.144 348.912C250.208 348.628 250.239 348.46 250.281 348.229C250.376 347.745 250.47 347.262 250.555 346.778C250.639 346.326 250.723 345.874 250.796 345.411C250.796 345.327 250.796 345.243 250.796 345.148C250.88 344.696 250.954 344.244 251.017 343.782C251.112 343.204 251.206 342.615 251.29 342.026L251.48 340.586C251.564 339.976 251.648 339.356 251.721 338.735L251.879 337.327C251.953 336.675 252.016 336.023 252.079 335.361C252.079 334.877 252.174 334.393 252.216 333.91C252.268 333.205 252.331 332.491 252.373 331.807C252.373 331.345 252.447 330.882 252.478 330.409C252.531 329.62 252.573 328.811 252.615 328.001C252.615 327.581 252.615 327.181 252.678 326.75C252.731 325.594 252.762 324.406 252.794 323.207C252.794 323.123 252.794 323.039 252.794 322.955C252.794 321.609 252.794 320.222 252.794 318.813L248.725 321.157C247.842 354.158 238.685 370.706 229.801 380.21C227.998 382.129 226.074 383.93 224.04 385.603C221.732 387.491 219.271 389.183 216.681 390.66C216.218 390.923 215.745 391.175 215.272 391.428L214.358 391.911C213.853 392.174 213.306 392.416 212.812 392.658L211.95 393.068C211.309 393.362 210.646 393.635 209.984 393.909L209.732 394.014C208.796 394.392 207.86 394.75 206.904 395.065C206.399 395.244 205.852 395.402 205.369 395.57L204.475 395.864C203.834 396.064 203.172 396.253 202.509 396.432L201.521 396.695C200.974 396.842 200.407 396.989 199.839 397.115L198.682 397.378C198.059 397.525 197.428 397.662 196.79 397.788L196.296 397.872L194.256 398.24L193.373 398.377L191.628 398.619L190.661 398.745L188.863 398.945L187.969 399.039C187.086 399.123 186.193 399.197 185.289 399.249C184.384 399.302 183.239 399.365 182.208 399.407H181.378C180.652 399.407 179.927 399.407 179.191 399.407H178.287C177.078 399.407 175.869 399.407 174.639 399.344H174.46C173.177 399.344 171.895 399.228 170.612 399.144H170.044C168.846 399.06 167.637 398.955 166.428 398.829H166.239C165.04 398.703 163.831 398.566 162.612 398.408L161.991 398.324C160.625 398.135 159.258 397.925 157.881 397.693H157.712L154.884 397.189L154.012 397.021C152.876 396.8 151.741 396.558 150.606 396.306L150.09 396.19C149.102 395.969 148.114 395.738 147.126 395.486L146.074 395.233C145.202 395.013 144.319 394.781 143.446 394.54H143.362C141.995 394.161 140.618 393.772 139.241 393.362L138.442 393.11C137.39 392.794 136.339 392.468 135.288 392.132C134.236 391.796 133.185 391.449 132.134 391.081L131.24 390.776C130.084 390.366 128.917 389.935 127.76 389.504L127.245 389.304L124.449 388.253L123.397 387.811C122.346 387.38 121.295 386.928 120.18 386.476L120.065 386.423C119.013 385.971 117.899 385.498 116.816 385.015L116.69 384.783C115.555 384.268 114.419 383.732 113.284 383.217L112.232 382.733C111.412 382.348 110.592 381.948 109.772 381.535L108.626 380.977C107.67 380.504 106.713 380.01 105.756 379.516L105.146 379.211C104.001 378.612 102.855 378.013 101.709 377.392L99.8163 376.341L98.8806 375.826C97.9239 375.29 96.9567 374.775 96 374.196V378.812C128.276 397.389 159.889 406.23 187.465 404.401C200.575 403.539 211.761 400.332 220.865 394.865C221.149 394.708 221.422 394.539 221.696 394.361C221.969 394.182 222.211 393.993 222.484 393.814Z" fill="#37474F"/>
<path opacity="0.2" d="M99.8085 376.373L101.701 377.424C102.847 378.044 103.993 378.643 105.139 379.243L105.748 379.548C106.705 380.042 107.662 380.536 108.619 381.009L109.764 381.566C110.585 381.973 111.405 382.372 112.225 382.765L113.276 383.248C114.411 383.784 115.547 384.3 116.682 384.815L116.966 384.941C118.017 385.424 119.132 385.898 120.215 386.35L120.33 386.402C121.382 386.854 122.433 387.306 123.547 387.737L124.599 388.179L127.395 389.23L127.91 389.43C129.067 389.861 130.234 390.292 131.39 390.702L132.284 391.007C133.335 391.375 134.386 391.722 135.438 392.058C136.489 392.395 137.54 392.721 138.592 393.036L139.391 393.288C140.768 393.698 142.145 394.087 143.512 394.466H143.596C144.469 394.708 145.352 394.939 146.224 395.16L147.276 395.412C148.264 395.664 149.252 395.896 150.24 396.116L150.755 396.232C151.891 396.484 153.026 396.726 154.162 396.947L155.034 397.115L157.862 397.62H158.031C159.408 397.851 160.775 398.061 162.141 398.251L162.762 398.335C163.981 398.492 165.19 398.629 166.389 398.755H166.578C167.787 398.881 168.996 398.986 170.194 399.071H170.762C172.045 399.155 173.327 399.228 174.61 399.27H174.789C176.019 399.27 177.228 399.333 178.437 399.333H179.341C180.077 399.333 180.802 399.333 181.528 399.333H182.358C183.409 399.333 184.461 399.249 185.438 399.176C186.416 399.102 187.236 399.05 188.119 398.965L189.013 398.871L190.811 398.671L191.778 398.545L193.523 398.303L194.406 398.166L196.446 397.798L196.94 397.714C197.578 397.588 198.209 397.452 198.832 397.304L199.989 397.042C200.556 396.915 201.124 396.768 201.671 396.621L202.659 396.358C203.321 396.179 203.984 395.99 204.625 395.79L205.519 395.496C206.034 395.328 206.57 395.17 207.054 394.991C208.01 394.655 208.946 394.298 209.882 393.94L210.134 393.835C210.796 393.562 211.459 393.288 212.1 392.994L212.962 392.584C213.477 392.342 214.013 392.1 214.507 391.837L215.422 391.354C215.895 391.102 216.368 390.849 216.831 390.586C219.421 389.109 221.882 387.417 224.19 385.53C226.224 383.857 228.148 382.055 229.951 380.136L228.532 380.494L227.702 380.683L226.04 381.04L225.294 381.198L224.022 381.429L223.086 381.587L221.741 381.797L220.847 381.934C220.353 382.008 219.796 382.06 219.344 382.123L218.555 382.228L216.452 382.439H216.232C215.464 382.512 214.686 382.565 213.908 382.617C212.92 382.691 211.921 382.733 210.912 382.775H210.008H207.811H206.917C205.708 382.775 204.488 382.775 203.269 382.712H202.638C201.503 382.712 200.367 382.607 199.221 382.533H198.643C197.476 382.449 196.309 382.355 195.132 382.228L194.291 382.144C193.239 382.029 192.188 381.913 191.137 381.776L190.516 381.692C189.37 381.535 188.224 381.366 187.068 381.177L186.237 381.03C185.291 380.872 184.356 380.704 183.409 380.525L182.526 380.357C181.401 380.136 180.266 379.894 179.12 379.642L178.605 379.527C177.627 379.306 176.639 379.064 175.651 378.822L174.599 378.57L171.961 377.876L171.151 377.655C170.026 377.34 168.891 377.014 167.755 376.667L166.967 376.425C166.098 376.166 165.225 375.892 164.349 375.605L163.298 375.248L160.743 374.375L159.849 374.07C158.728 373.671 157.603 373.261 156.475 372.84L155.865 372.598C154.929 372.251 153.993 371.883 153.058 371.547L152.007 371.105L149.588 370.107L148.537 369.655L145.383 368.298L145.089 368.172C143.953 367.657 142.807 367.121 141.672 366.595L140.621 366.122C139.801 365.733 138.97 365.334 138.15 364.924L137.015 364.366C136.142 363.935 135.28 363.494 134.407 363.042L133.535 362.6L130.097 360.771C129.466 360.445 128.846 360.098 128.226 359.72C127.9 359.541 127.574 359.373 127.258 359.183L124.472 357.617L124.388 357.564L95.9922 374.186C96.9489 374.743 97.9161 375.237 98.8728 375.815L99.8085 376.373Z" fill="white"/>
<path d="M75.5407 83.4635C80.2085 80.7721 84.151 82.0968 85.4125 86.281C86.5293 83.9829 88.2616 82.0395 90.4168 80.667C94.0754 78.5643 97.0507 80.257 97.0612 84.4517V86.3862L101.981 83.5476C104.547 82.0758 106.628 83.2637 106.639 86.2074C106.552 87.811 106.088 89.3715 105.284 90.7618C104.48 92.1521 103.359 93.3328 102.013 94.208L60.4542 118.22C57.889 119.692 55.8074 118.514 55.7969 115.571C55.8802 113.965 56.3429 112.402 57.1469 111.009C57.951 109.617 59.0736 108.435 60.4227 107.56L65.3323 104.721V101.178C65.3008 94.6706 69.8846 86.7436 75.5407 83.4635Z" fill="#2A9DF4" fill-opacity="0.23"/>
<path d="M116.292 99.1915C119.645 97.2676 122.473 98.2138 123.378 101.221C124.184 99.5647 125.437 98.1667 126.994 97.1835C129.612 95.6696 131.757 96.8891 131.757 99.9064V101.294L135.279 99.2546C137.118 98.2033 138.611 99.0443 138.611 101.157C138.553 102.31 138.223 103.431 137.647 104.431C137.071 105.431 136.267 106.28 135.3 106.908L105.453 124.139C103.613 125.191 102.12 124.35 102.109 122.236C102.174 121.085 102.508 119.964 103.085 118.965C103.662 117.966 104.466 117.117 105.432 116.486L108.953 114.457V111.902C109.088 109.355 109.823 106.876 111.098 104.667C112.374 102.458 114.153 100.582 116.292 99.1915Z" fill="#2A9DF4" fill-opacity="0.23"/>
<path d="M455.695 94.1446C452.341 92.2102 449.513 93.1564 448.609 96.1632C447.802 94.5103 446.549 93.1157 444.992 92.1366C442.374 90.6227 440.23 91.8422 440.23 94.8595V96.2368L436.708 94.2077C434.868 93.1564 433.375 93.9974 433.375 96.1106C433.433 97.2627 433.764 98.3846 434.339 99.3843C434.915 100.384 435.719 101.233 436.687 101.861L466.534 119.092C468.373 120.144 469.866 119.303 469.877 117.19C469.813 116.038 469.478 114.917 468.901 113.918C468.324 112.919 467.52 112.07 466.555 111.439L463.033 109.399V106.855C462.895 104.309 462.158 101.831 460.883 99.6225C459.608 97.4141 457.831 95.5374 455.695 94.1446Z" fill="#2A9DF4" fill-opacity="0.23"/>
<path d="M270.787 64.1301C270.788 63.9867 270.751 63.8456 270.678 63.7217C270.606 63.5977 270.502 63.4955 270.377 63.4257L266.739 61.3967C266.619 61.3275 266.483 61.291 266.345 61.291C266.207 61.291 266.071 61.3275 265.951 61.3967L241.003 75.7997C240.543 76.0498 240.175 76.4402 239.952 76.9141C239.814 77.2291 239.742 77.5691 239.741 77.9129V87.1855L231.1 96.1217C230.332 96.9207 230.248 98.1298 230.847 98.319L234.296 100.211C234.352 100.276 234.425 100.324 234.506 100.351C234.587 100.379 234.674 100.385 234.758 100.369L239.773 99.7593V106.572C239.773 106.712 239.809 106.851 239.88 106.972C239.95 107.094 240.051 107.195 240.172 107.266L243.799 109.274H243.852C243.966 109.333 244.092 109.364 244.22 109.364C244.348 109.364 244.474 109.333 244.588 109.274L269.536 94.8602C269.906 94.6477 270.213 94.3415 270.428 93.9724C270.642 93.6033 270.755 93.1842 270.755 92.7575L270.787 64.1301ZM244.052 78.2808L243.968 78.3755L244.052 78.2808ZM243.81 78.5857C243.815 78.6135 243.815 78.642 243.81 78.6698C243.815 78.642 243.815 78.6135 243.81 78.5857ZM243.463 79.4058C243.467 79.4407 243.467 79.476 243.463 79.5109C243.467 79.476 243.467 79.4407 243.463 79.4058ZM244.231 78.1021L244.315 78.0285L244.231 78.1021Z" fill="#0276F9"/>
<path opacity="0.1" d="M243.481 108.591C243.482 108.729 243.518 108.864 243.586 108.984C243.654 109.104 243.752 109.204 243.87 109.275L240.243 107.235C240.122 107.165 240.02 107.064 239.95 106.942C239.88 106.82 239.843 106.682 239.844 106.541V99.7287L243.492 99.2871L243.481 108.591Z" fill="black"/>
<path opacity="0.2" d="M240.968 75.79L265.916 61.3869C266.035 61.3177 266.171 61.2812 266.31 61.2812C266.448 61.2812 266.584 61.3177 266.704 61.3869L270.342 63.4159C270.219 63.3438 270.079 63.3058 269.937 63.3058C269.795 63.3058 269.655 63.3438 269.532 63.4159L244.616 77.798C244.145 78.0631 243.775 78.4773 243.565 78.9755L239.938 76.8728C240.16 76.4138 240.52 76.0353 240.968 75.79Z" fill="white"/>
<path opacity="0.1" d="M239.781 87.1757V77.903C239.782 77.5592 239.854 77.2192 239.992 76.9043L243.619 79.0069C243.496 79.3034 243.435 79.6218 243.44 79.9426V89.2258L239.792 87.1862L239.781 87.1757Z" fill="black"/>
<path opacity="0.05" d="M231.139 96.112L239.78 87.1758L243.429 89.2153L234.797 98.141C234.124 98.8244 233.977 99.8232 234.335 100.244L230.886 98.3513C230.287 98.12 230.371 96.911 231.139 96.112Z" fill="white"/>
<path d="M258.295 76.5043C258.374 76.442 258.473 76.4082 258.574 76.4082C258.675 76.4082 258.773 76.442 258.852 76.5043L263.741 81.1826C264.088 81.5085 263.741 82.4547 263.194 82.7806L260.492 84.3366L260.555 95.449L256.224 97.9512L256.161 86.8387L253.459 88.3947C252.891 88.7311 252.565 88.1634 252.902 87.4485L257.738 77.1456C257.86 76.8842 258.053 76.6622 258.295 76.5043Z" fill="white"/>
<path opacity="0.1" d="M255.096 254.746C253.446 250.887 250.008 247.229 244.793 244.232C229.602 235.454 205.053 235.454 189.957 244.232C174.86 253.011 174.944 267.225 190.135 275.993C202.331 283.037 220.56 284.403 235.079 280.145V266.583L255.096 254.746Z" fill="#0276F9"/>
<path d="M163.766 157.394L181.48 143.559L183.205 146.67L165.227 160.769L163.766 157.394Z" fill="#263238"/>
<path d="M196.335 169.842L206.28 168.938C205.019 175.245 202.8 183.992 202.8 183.992L193.633 178.105L196.335 169.842Z" fill="#455A64"/>
<path d="M141.784 210.538C141.773 208.261 142.512 206.045 143.887 204.23C144.981 202.98 146.139 201.787 147.356 200.656C148.227 199.818 148.889 198.788 149.29 197.649C149.676 196.339 150.249 195.093 150.994 193.948C151.822 192.625 153.122 191.667 154.631 191.267C154.926 191.197 155.233 191.189 155.532 191.243C155.83 191.298 156.114 191.413 156.366 191.583L156.071 191.215C155.81 190.885 155.458 190.637 155.059 190.5C154.66 190.364 154.231 190.346 153.822 190.447C152.277 190.848 150.947 191.832 150.11 193.191C149.341 194.35 148.752 195.619 148.365 196.955C147.968 198.149 147.291 199.231 146.389 200.109C145.148 201.262 143.969 202.48 142.856 203.757C141.45 205.603 140.689 207.86 140.691 210.181C140.653 210.659 140.712 211.14 140.864 211.595C141.015 212.05 141.257 212.47 141.574 212.83C141.946 213.16 142.414 213.363 142.909 213.408C142.811 213.347 142.719 213.277 142.636 213.198C142.319 212.837 142.08 212.414 141.933 211.956C141.787 211.499 141.736 211.016 141.784 210.538Z" fill="black"/>
<path d="M156.842 191.96C156.708 191.793 156.548 191.648 156.369 191.529C156.118 191.36 155.834 191.244 155.535 191.19C155.237 191.135 154.93 191.144 154.635 191.214C153.126 191.613 151.826 192.572 150.997 193.895C150.245 195.055 149.667 196.319 149.284 197.648C148.893 198.814 148.23 199.87 147.349 200.728C146.132 201.859 144.974 203.052 143.88 204.303C142.505 206.117 141.766 208.334 141.777 210.611C141.739 211.079 141.796 211.55 141.944 211.997C142.092 212.443 142.328 212.854 142.639 213.207C142.723 213.286 142.815 213.357 142.913 213.418C143.262 213.627 143.654 213.755 144.06 213.793C144.465 213.832 144.874 213.779 145.257 213.638C146.131 213.297 146.895 212.723 147.465 211.977C148.064 211.273 148.516 210.484 149.157 209.769C150.182 208.631 151.327 207.609 152.574 206.721L155.949 204.134L157.484 192.885C157.484 192.885 157.2 192.391 156.842 191.96Z" fill="#263238"/>
<path d="M180.914 190.068L180.399 203.956C174.091 197.564 157.669 191.603 157.669 191.603C151.446 196.187 152.833 201.454 155.167 203.956C168.035 210.958 182.733 220.378 186.097 219.6C189.461 218.822 193.919 213.713 197.188 204.082L190.881 193.254L180.914 190.068Z" fill="#37474F"/>
<path d="M225.447 264.638C225.31 264.922 225.118 265.175 224.881 265.383C224.644 265.59 224.368 265.748 224.069 265.847C223.475 266.044 222.855 266.154 222.23 266.173C220.876 266.315 219.51 266.294 218.161 266.11C216.808 265.93 215.532 265.381 214.471 264.522C213.558 263.631 212.767 262.623 212.116 261.526C210.376 258.981 208.219 256.749 205.734 254.924C205.799 255.377 205.89 255.827 206.008 256.27C208.397 258.036 210.464 260.202 212.116 262.672C212.769 263.771 213.561 264.781 214.471 265.679C215.534 266.533 216.81 267.082 218.161 267.266C219.511 267.44 220.875 267.461 222.23 267.329C222.856 267.307 223.476 267.194 224.069 266.993C224.368 266.894 224.644 266.736 224.881 266.529C225.118 266.321 225.31 266.068 225.447 265.784C225.623 265.357 225.649 264.882 225.52 264.438C225.5 264.506 225.476 264.573 225.447 264.638Z" fill="#263238"/>
<path d="M224.886 262.105C224.263 261.454 223.556 260.888 222.784 260.423C219.358 258.088 216.803 254.682 215.519 250.74L205.868 251.287C205.44 252.455 205.392 253.728 205.731 254.924C208.216 256.75 210.373 258.982 212.113 261.527C212.764 262.624 213.555 263.631 214.468 264.523C215.528 265.381 216.805 265.931 218.158 266.111C219.507 266.294 220.873 266.316 222.226 266.174C222.852 266.155 223.472 266.045 224.066 265.848C224.365 265.749 224.641 265.591 224.878 265.383C225.115 265.176 225.307 264.922 225.444 264.639C225.473 264.574 225.497 264.507 225.517 264.439C225.608 264.028 225.598 263.601 225.489 263.194C225.379 262.788 225.172 262.414 224.886 262.105Z" fill="#37474F"/>
<path d="M174.258 167.949C172.155 178.147 172.965 182.668 180.913 190.027C188.861 197.386 201.939 207.899 201.939 207.899C198.785 218.276 203.495 231.933 203.674 237.2C203.852 242.467 205.145 251.371 205.145 251.371C212.4 255.261 216.289 251.371 216.289 251.371V205.629C216.293 201.616 214.84 197.738 212.2 194.716L196.335 176.623V169.873L174.258 167.949Z" fill="#455A64"/>
<path d="M230.173 141.044C231.547 141.502 233.015 141.607 234.441 141.349C234.441 138.595 234.441 135.514 234.662 131.509C235.177 122.867 232.843 118.105 230.919 116.38C228.995 114.656 225.662 114.625 224.432 115.718C223.202 116.812 226.22 120.785 226.651 124.244C224.926 122.226 224.054 121.542 222.445 122.772C223.395 123.875 224.11 125.159 224.548 126.547C224.895 128.281 226.745 129.49 227.26 130.92C227.66 132.035 227.26 135.599 226.598 138.658C227.568 139.743 228.798 140.565 230.173 141.044Z" fill="#F28F8F"/>
<path opacity="0.2" d="M230.173 141.044C231.547 141.502 233.015 141.607 234.441 141.349C234.441 138.595 234.441 135.514 234.662 131.509C235.177 122.867 232.843 118.105 230.919 116.38C228.995 114.656 225.662 114.625 224.432 115.718C223.202 116.812 226.22 120.785 226.651 124.244C224.926 122.226 224.054 121.542 222.445 122.772C223.395 123.875 224.11 125.159 224.548 126.547C224.895 128.281 226.745 129.49 227.26 130.92C227.66 132.035 227.26 135.599 226.598 138.658C227.568 139.743 228.798 140.565 230.173 141.044Z" fill="black"/>
<path d="M230.177 141.045C228.791 140.57 227.55 139.749 226.571 138.659C226.382 139.573 226.172 140.446 225.961 141.182C225.961 141.182 219.286 132.025 217.782 130.29C216.279 128.555 214.902 124.424 208.32 123.656L209.109 139.805C209.109 139.805 222.366 154.891 226.908 157.435C231.449 159.979 232.963 156.678 233.888 150.57C234.302 147.515 234.478 144.432 234.414 141.35C232.998 141.602 231.542 141.497 230.177 141.045Z" fill="#455A64"/>
<path opacity="0.3" d="M224.981 150.958C223.93 147.205 225.496 142.548 226.032 141.181L224.897 139.625C224.066 141.401 223.642 143.34 223.657 145.301C223.671 147.262 224.124 149.195 224.981 150.958Z" fill="black"/>
<path d="M188.776 123.309C184.97 122.794 180.912 123.435 176.759 124.129C175.995 133.158 175.995 142.235 176.759 151.264L173.469 168.895C186.347 176.674 202.769 173.215 206.06 170.997C211.243 150.78 212.536 131.678 208.352 123.688L198.112 121.953L188.776 123.309Z" fill="#37474F"/>
<path d="M196.983 131.174L193.977 128.787C194.923 128.327 195.908 127.951 196.92 127.662L198.108 128.251L196.983 131.174Z" fill="#0276F9"/>
<path d="M200.214 130.921L200.876 130.511L201.99 128.093L200.697 127.662L199.93 128.251L200.214 130.921Z" fill="#0276F9"/>
<path d="M197.798 132.835C195.527 141.855 184.95 147.732 176.235 147.101C174.998 146.986 173.76 147.306 172.734 148.005C171.453 148.929 170.315 150.038 169.359 151.296C169.234 151.464 169.149 151.659 169.11 151.864C169.071 152.07 169.079 152.282 169.134 152.485C169.189 152.687 169.288 152.874 169.426 153.033C169.563 153.191 169.734 153.316 169.927 153.399C171.856 154.172 173.847 154.784 175.878 155.228C177.998 155.72 180.209 155.662 182.301 155.06C198.144 150.476 200.342 140.341 199.911 132.824L197.798 132.835Z" fill="#0276F9"/>
<path opacity="0.3" d="M199.931 133.233C199.931 133.097 199.931 132.96 199.931 132.834H197.828C197.828 132.834 197.828 132.918 197.828 132.96C198.127 133.21 198.493 133.367 198.879 133.412C199.239 133.444 199.602 133.382 199.931 133.233Z" fill="black"/>
<path d="M198.112 128.26C198.714 128.166 199.328 128.166 199.93 128.26C200.445 128.914 200.772 129.695 200.877 130.521C200.721 131.354 200.391 132.146 199.909 132.844C199.363 133.254 197.807 132.844 197.807 132.844C197.405 132.313 197.053 131.747 196.755 131.151C196.664 130.967 196.617 130.763 196.617 130.557C196.617 130.352 196.664 130.148 196.755 129.964C197.078 129.304 197.541 128.723 198.112 128.26Z" fill="#0276F9"/>
<path opacity="0.3" d="M203.837 174.141C202.221 176.106 199.953 177.427 197.445 177.862L202.797 183.981C202.235 182.042 201.33 180.219 200.126 178.598C201.82 177.561 203.125 175.995 203.837 174.141Z" fill="black"/>
<path d="M198.93 127.978C201.369 127.326 202.925 130.081 202.925 130.081C203.072 124.099 199.97 121.807 199.97 121.807L198.93 127.978Z" fill="#455A64"/>
<path d="M188.543 98.4255C187.492 97.7001 186.367 96.9852 185.273 96.2703C185.547 95.9389 185.891 95.6726 186.28 95.4908C186.669 95.3089 187.094 95.2161 187.523 95.219C188.013 95.2572 188.469 95.4832 188.795 95.8498C189.114 96.2275 189.275 96.7127 189.247 97.206C189.353 95.2505 191.035 93.4948 192.79 92.6432C194.599 91.8727 196.578 91.5865 198.531 91.8127C200.476 91.9388 202.41 92.3173 204.355 92.3804C206.611 92.4656 208.864 92.1487 211.01 91.4447C211.247 91.3652 211.501 91.3515 211.745 91.4053C211.989 91.4591 212.213 91.5782 212.395 91.75C212.576 91.9218 212.708 92.1396 212.775 92.3803C212.842 92.621 212.842 92.8754 212.776 93.1163C212.401 94.3577 211.77 95.507 210.926 96.4911C211.376 96.6195 211.846 96.6693 212.313 96.6382C212.566 96.6211 212.819 96.6742 213.044 96.7917C213.269 96.9091 213.457 97.0863 213.587 97.3038C213.718 97.5212 213.786 97.7705 213.783 98.024C213.781 98.2776 213.709 98.5257 213.575 98.7409C212.716 99.9986 211.506 100.975 210.095 101.548C204.912 109.727 190.94 117.034 190.94 117.034C190.467 116.971 190.017 116.795 189.627 116.521C189.237 116.246 188.919 115.881 188.701 115.457C188.285 114.597 188.018 113.673 187.912 112.723C187.31 109.142 186.815 105.543 186.43 101.926C186.292 101.165 186.325 100.382 186.525 99.6345C186.634 99.2756 186.853 98.96 187.151 98.7319C187.449 98.5038 187.811 98.3746 188.186 98.3624" fill="#263238"/>
<path d="M189.898 111.082C189.52 114.457 188.773 120.282 188.773 120.282C191.717 124.256 197.415 125.128 198.929 127.977C199.907 124.812 200.545 121.552 200.832 118.252L191.107 110.609L189.898 111.082Z" fill="#F28F8F"/>
<path opacity="0.2" d="M189.898 111.082C189.52 114.457 188.773 120.282 188.773 120.282C191.717 124.256 197.415 125.128 198.929 127.977C199.907 124.812 200.545 121.552 200.832 118.252L191.107 110.609L189.898 111.082Z" fill="black"/>
<path opacity="0.3" d="M191.107 110.609L190.855 110.704C190.733 113.422 191.639 116.086 193.392 118.167C195.145 120.247 197.617 121.591 200.316 121.932C200.705 119.651 200.79 118.252 200.79 118.252L191.107 110.609Z" fill="black"/>
<path d="M210.095 101.568C210.827 107.188 210.204 112.901 208.276 118.231C208.029 118.892 207.585 119.461 207.004 119.861C206.423 120.262 205.733 120.474 205.028 120.47C197.668 120.47 191.823 117.947 190.803 111.387C190.432 111.859 189.918 112.199 189.338 112.354C188.758 112.51 188.143 112.473 187.586 112.249C186.541 111.767 185.703 110.928 185.221 109.884C184.909 109.342 184.703 108.746 184.611 108.128C184.521 107.502 184.675 106.866 185.042 106.351C185.384 105.97 185.837 105.706 186.337 105.597C186.837 105.487 187.358 105.538 187.828 105.741C188.782 106.17 189.535 106.95 189.931 107.918C190.088 108.275 190.299 108.706 190.688 108.717C191.077 108.727 191.318 108.275 191.445 107.897C191.911 106.354 192.113 104.744 192.044 103.134C193.209 103.356 194.416 103.127 195.419 102.493C196.391 101.825 197.069 100.809 197.311 99.6543C197.623 100.247 198.072 100.756 198.62 101.14C199.169 101.524 199.801 101.772 200.465 101.862C201.111 101.95 201.768 101.883 202.383 101.665C202.997 101.447 203.551 101.086 203.997 100.611C204.756 101.385 205.744 101.894 206.815 102.062C207.933 102.217 209.072 102.045 210.095 101.568Z" fill="#F28F8F"/>
<path opacity="0.2" d="M210.095 101.568C210.827 107.188 210.204 112.901 208.276 118.231C208.029 118.892 207.585 119.461 207.004 119.861C206.423 120.262 205.733 120.474 205.028 120.47C197.668 120.47 191.823 117.947 190.803 111.387C190.432 111.859 189.918 112.199 189.338 112.354C188.758 112.51 188.143 112.473 187.586 112.249C186.541 111.767 185.703 110.928 185.221 109.884C184.909 109.342 184.703 108.746 184.611 108.128C184.521 107.502 184.675 106.866 185.042 106.351C185.384 105.97 185.837 105.706 186.337 105.597C186.837 105.487 187.358 105.538 187.828 105.741C188.782 106.17 189.535 106.95 189.931 107.918C190.088 108.275 190.299 108.706 190.688 108.717C191.077 108.727 191.318 108.275 191.445 107.897C191.911 106.354 192.113 104.744 192.044 103.134C193.209 103.356 194.416 103.127 195.419 102.493C196.391 101.825 197.069 100.809 197.311 99.6543C197.623 100.247 198.072 100.756 198.62 101.14C199.169 101.524 199.801 101.772 200.465 101.862C201.111 101.95 201.768 101.883 202.383 101.665C202.997 101.447 203.551 101.086 203.997 100.611C204.756 101.385 205.744 101.894 206.815 102.062C207.933 102.217 209.072 102.045 210.095 101.568Z" fill="black"/>
<path d="M203.375 107.939L206.75 112.197L203.554 113.259L203.375 107.939Z" fill="#F28F8F"/>
<path opacity="0.3" d="M203.375 107.939L206.75 112.197L203.554 113.259L203.375 107.939Z" fill="black"/>
<path d="M200.611 115.277L203.271 116.15C203.096 116.463 202.824 116.71 202.495 116.854C202.167 116.998 201.801 117.031 201.452 116.949C201.143 116.808 200.89 116.565 200.737 116.261C200.584 115.957 200.54 115.61 200.611 115.277Z" fill="#F28F8F"/>
<path opacity="0.3" d="M200.611 115.277L203.271 116.15C203.096 116.463 202.824 116.71 202.495 116.854C202.167 116.998 201.801 117.031 201.452 116.949C201.143 116.808 200.89 116.565 200.737 116.261C200.584 115.957 200.54 115.61 200.611 115.277Z" fill="black"/>
<path d="M202.331 116.906C202.046 116.99 201.743 116.99 201.458 116.906C201.213 116.806 201.003 116.636 200.854 116.417C200.704 116.199 200.622 115.941 200.617 115.676C200.981 115.624 201.352 115.698 201.669 115.887C201.841 116.005 201.988 116.156 202.101 116.331C202.215 116.506 202.293 116.701 202.331 116.906Z" fill="#F28F8F"/>
<path d="M198.696 108.77C198.699 108.895 198.726 109.018 198.777 109.132C198.828 109.245 198.901 109.348 198.992 109.433C199.084 109.518 199.191 109.585 199.308 109.628C199.425 109.671 199.549 109.69 199.674 109.685C199.864 109.68 200.048 109.619 200.204 109.51C200.359 109.4 200.478 109.247 200.546 109.069C200.614 108.892 200.627 108.698 200.584 108.513C200.541 108.328 200.444 108.159 200.306 108.03C200.167 107.9 199.992 107.814 199.805 107.784C199.617 107.753 199.425 107.78 199.252 107.859C199.079 107.939 198.934 108.068 198.835 108.23C198.736 108.392 198.688 108.58 198.696 108.77Z" fill="#263238"/>
<path d="M206.618 108.192C206.632 108.443 206.742 108.678 206.927 108.849C207.111 109.02 207.355 109.112 207.606 109.106C207.796 109.1 207.979 109.037 208.133 108.926C208.287 108.816 208.404 108.662 208.47 108.484C208.537 108.306 208.548 108.113 208.505 107.928C208.461 107.744 208.363 107.577 208.224 107.448C208.085 107.319 207.91 107.235 207.723 107.205C207.536 107.175 207.344 107.202 207.172 107.282C207 107.362 206.855 107.491 206.757 107.653C206.658 107.815 206.61 108.002 206.618 108.192Z" fill="#263238"/>
<path d="M207.414 104.375L209.569 105.763C209.653 105.498 209.654 105.214 209.571 104.949C209.488 104.684 209.326 104.45 209.107 104.28C208.843 104.138 208.546 104.072 208.247 104.088C207.948 104.105 207.66 104.204 207.414 104.375Z" fill="#263238"/>
<path d="M199.279 104.542L197.176 106.067C197.077 105.809 197.059 105.526 197.125 105.258C197.191 104.989 197.337 104.747 197.544 104.563C197.8 104.392 198.101 104.299 198.409 104.295C198.717 104.291 199.019 104.377 199.279 104.542Z" fill="#263238"/>
<path d="M188.774 120.281L188.963 118.788C188.837 118.771 188.71 118.771 188.585 118.788C187.533 119.345 185.609 122.383 185.609 122.383C186.293 124.002 189.583 129.038 192.17 130.794C195.166 129.29 197.332 127.188 198.93 127.955C198.309 124.475 188.774 120.281 188.774 120.281Z" fill="#455A64"/>
<path d="M182.93 175.654C190.131 165.561 205.975 142.19 205.007 123.088L208.277 123.635C209.633 142.443 194.726 166.97 184.349 179.691L182.93 175.654Z" fill="#263238"/>
<path d="M180.7 183.665L158.748 165.141L154.869 178.808C154.847 178.895 154.846 178.986 154.866 179.074C154.886 179.162 154.927 179.243 154.985 179.312L155.058 179.375L176.736 198.762C176.663 198.689 176.611 198.598 176.586 198.498C176.56 198.398 176.561 198.293 176.589 198.194L180.7 183.665Z" fill="#0276F9"/>
<path opacity="0.15" d="M180.7 183.665L158.748 165.141L154.869 178.808C154.847 178.895 154.846 178.986 154.866 179.074C154.886 179.162 154.927 179.243 154.985 179.312L155.058 179.375L176.736 198.762C176.663 198.689 176.611 198.598 176.586 198.498C176.56 198.398 176.561 198.293 176.589 198.194L180.7 183.665Z" fill="black"/>
<path d="M179.758 187.008L183.206 174.834L179.758 187.008Z" fill="#F8D637"/>
<path d="M185.565 173.563L185.555 173.553L185.565 173.574V173.563Z" fill="#F8D637"/>
<path d="M176.729 198.837H176.74L176.719 198.826L176.729 198.837Z" fill="#F8D637"/>
<path d="M185.791 174.213C185.806 174.097 185.794 173.978 185.756 173.867C185.717 173.756 185.654 173.655 185.571 173.572C185.483 173.49 185.378 173.429 185.263 173.394C185.148 173.36 185.027 173.352 184.908 173.372C184.516 173.439 184.15 173.616 183.855 173.882C183.559 174.148 183.344 174.493 183.237 174.876L179.778 187.008L176.624 198.257C176.595 198.356 176.594 198.461 176.62 198.561C176.646 198.661 176.698 198.752 176.771 198.825C176.843 198.896 176.932 198.946 177.031 198.97C177.129 198.994 177.232 198.991 177.328 198.961L181.628 197.658C181.951 197.563 182.239 197.376 182.457 197.12C182.675 196.865 182.815 196.551 182.858 196.217L185.791 174.213Z" fill="#0276F9"/>
<path opacity="0.3" d="M185.791 174.213C185.806 174.097 185.794 173.978 185.756 173.867C185.717 173.756 185.654 173.655 185.571 173.572C185.483 173.49 185.378 173.429 185.263 173.394C185.148 173.36 185.027 173.352 184.908 173.372C184.516 173.439 184.15 173.616 183.855 173.882C183.559 174.148 183.344 174.493 183.237 174.876L179.778 187.008L176.624 198.257C176.595 198.356 176.594 198.461 176.62 198.561C176.646 198.661 176.698 198.752 176.771 198.825C176.843 198.896 176.932 198.946 177.031 198.97C177.129 198.994 177.232 198.991 177.328 198.961L181.628 197.658C181.951 197.563 182.239 197.376 182.457 197.12C182.675 196.865 182.815 196.551 182.858 196.217L185.791 174.213Z" fill="black"/>
<path d="M172.984 175.77L169.094 189.71L169.704 190.299L173.467 176.463L172.984 175.77Z" fill="#0276F9"/>
<path d="M164.731 168.391L160.852 182.342L161.461 182.93L165.225 169.095L164.731 168.391Z" fill="#0276F9"/>
<path d="M163.818 154.134C163.732 154.057 163.63 154 163.519 153.967C163.408 153.935 163.291 153.927 163.177 153.945C162.785 154.012 162.419 154.189 162.123 154.455C161.827 154.721 161.613 155.065 161.505 155.449L158.53 165.962C158.358 166.583 158.365 167.241 158.551 167.859C158.737 168.477 159.095 169.029 159.581 169.452L161.873 171.439L177.475 185.033C177.718 185.245 178.012 185.393 178.327 185.461C178.643 185.53 178.971 185.518 179.281 185.425C179.59 185.333 179.872 185.164 180.098 184.933C180.325 184.703 180.489 184.419 180.576 184.108L183.205 174.856C183.312 174.473 183.527 174.128 183.823 173.862C184.118 173.596 184.484 173.419 184.876 173.353C184.995 173.332 185.116 173.34 185.231 173.375C185.346 173.409 185.451 173.47 185.539 173.552L163.818 154.134Z" fill="#0276F9"/>
<path opacity="0.2" d="M163.818 154.134C163.732 154.057 163.63 154 163.519 153.967C163.408 153.935 163.291 153.927 163.177 153.945C162.785 154.012 162.419 154.189 162.123 154.455C161.827 154.721 161.613 155.065 161.505 155.449L158.53 165.962C158.358 166.583 158.365 167.241 158.551 167.859C158.737 168.477 159.095 169.029 159.581 169.452L161.873 171.439L177.475 185.033C177.718 185.245 178.012 185.393 178.327 185.461C178.643 185.53 178.971 185.518 179.281 185.425C179.59 185.333 179.872 185.164 180.098 184.933C180.325 184.703 180.489 184.419 180.576 184.108L183.205 174.856C183.312 174.473 183.527 174.128 183.823 173.862C184.118 173.596 184.484 173.419 184.876 173.353C184.995 173.332 185.116 173.34 185.231 173.375C185.346 173.409 185.451 173.47 185.539 173.552L163.818 154.134Z" fill="white"/>
<path d="M150.336 155.154L151.04 165.783C152.544 176.38 154.499 178.052 159.346 179.45C164.192 180.848 161.354 174.792 160.723 173.668C160.259 172.664 159.93 171.604 159.745 170.514C162.132 172.679 162.742 172.448 163.688 171.786C164.066 171.491 162.279 169.935 162.279 169.935C161.332 167.9 160.1 166.01 158.62 164.321L159.178 155.133L150.336 155.154Z" fill="#F28F8F"/>
<path opacity="0.2" d="M150.336 155.154L151.04 165.783C152.544 176.38 154.499 178.052 159.346 179.45C164.192 180.848 161.354 174.792 160.723 173.668C160.259 172.664 159.93 171.604 159.745 170.514C162.132 172.679 162.742 172.448 163.688 171.786C164.066 171.491 162.279 169.935 162.279 169.935C161.332 167.9 160.1 166.01 158.62 164.321L159.178 155.133L150.336 155.154Z" fill="black"/>
<path d="M181.879 123.373C175.056 122.227 170.567 125.665 167.455 127.662C165.205 129.113 156.942 135.337 152.547 138.67C151.678 139.33 150.977 140.186 150.502 141.169C150.027 142.153 149.791 143.234 149.814 144.326L150.056 155.564C151.507 156.329 153.135 156.697 154.775 156.63C156.414 156.564 158.007 156.066 159.392 155.186L160.191 146.944C160.191 146.944 169.779 142.276 176.223 139.342C182.668 136.409 183.446 128.177 181.879 123.373Z" fill="#455A64"/>
<path opacity="0.1" d="M153.999 263.313C152.238 262.721 150.391 262.423 148.532 262.43C142.666 262.43 137.914 265.153 137.914 268.506C137.914 271.86 142.666 274.594 148.532 274.594C150.392 274.602 152.239 274.3 153.999 273.7V263.313Z" fill="#0276F9"/>
<path opacity="0.1" d="M411.286 237.926C426.477 246.704 426.551 260.918 411.464 269.696C396.378 278.475 371.819 278.464 356.627 269.696C341.436 260.928 341.352 246.704 356.449 237.926C371.546 229.147 396.094 229.189 411.286 237.926Z" fill="#0276F9"/>
<path d="M430.62 138.553L428.938 137.723C432.722 140.477 439.23 155.311 441.658 161.346C441.689 161.424 441.75 161.487 441.826 161.52C441.903 161.554 441.99 161.555 442.068 161.525C442.147 161.494 442.209 161.433 442.243 161.357C442.276 161.28 442.278 161.193 442.247 161.115C441.438 159.096 435.309 143.915 430.62 138.553Z" fill="#E0E0E0"/>
<path d="M404.463 243.066L405.966 240.491L404.011 239.25C403.667 239.081 403.283 239.01 402.901 239.043C402.52 239.076 402.154 239.214 401.845 239.439C400.97 240.004 400.242 240.768 399.721 241.669C399.2 242.57 398.901 243.583 398.849 244.622C398.806 245.002 398.871 245.386 399.037 245.73C399.202 246.074 399.461 246.364 399.784 246.567L401.698 247.787L403.285 245.074C403.784 244.473 404.182 243.795 404.463 243.066Z" fill="#37474F"/>
<path d="M403.801 240.669C405.452 239.713 406.808 240.48 406.808 242.393C406.754 243.433 406.454 244.444 405.933 245.345C405.412 246.246 404.685 247.011 403.811 247.576C402.161 248.533 400.805 247.766 400.805 245.863C400.859 244.822 401.158 243.809 401.679 242.906C402.2 242.004 402.927 241.237 403.801 240.669Z" fill="#455A64"/>
<path d="M371.652 242.33L370.148 239.754L372.104 238.514C372.448 238.345 372.831 238.273 373.213 238.307C373.595 238.34 373.96 238.477 374.27 238.703C375.143 239.269 375.87 240.033 376.391 240.934C376.912 241.835 377.212 242.847 377.266 243.886C377.309 244.265 377.244 244.649 377.078 244.993C376.913 245.337 376.653 245.628 376.33 245.831L374.417 247.061L372.829 244.349C372.33 243.744 371.932 243.063 371.652 242.33Z" fill="#37474F"/>
<path d="M372.322 239.943C370.661 238.986 369.305 239.743 369.305 241.657C369.359 242.696 369.659 243.708 370.179 244.608C370.7 245.509 371.427 246.274 372.301 246.84C373.952 247.796 375.308 247.029 375.308 245.126C375.255 244.088 374.957 243.077 374.438 242.176C373.919 241.275 373.194 240.51 372.322 239.943Z" fill="#455A64"/>
<path d="M382.414 235.947H387.986V245.546C387.964 245.793 387.877 246.029 387.732 246.231C387.588 246.432 387.393 246.591 387.166 246.692C386.555 247.003 385.88 247.165 385.195 247.165C384.51 247.165 383.834 247.003 383.224 246.692C382.998 246.591 382.804 246.431 382.662 246.23C382.52 246.028 382.434 245.792 382.414 245.546V235.947Z" fill="#EBEBEB"/>
<path d="M402.595 238.639V240.92L387.992 244.61V239.764L402.595 238.639Z" fill="#E0E0E0"/>
<path d="M402.595 238.64L401.575 238.293L387.992 239.008V239.765L402.595 238.64Z" fill="#F5F5F5"/>
<path d="M404.061 259.392L402.547 256.816L404.502 255.576C404.847 255.404 405.232 255.329 405.615 255.361C405.999 255.392 406.367 255.528 406.679 255.755C407.551 256.324 408.277 257.09 408.798 257.993C409.319 258.895 409.619 259.908 409.675 260.948C409.709 261.327 409.64 261.707 409.476 262.05C409.311 262.392 409.056 262.684 408.739 262.893L406.857 264.123L405.27 261.411C404.758 260.809 404.35 260.127 404.061 259.392Z" fill="#37474F"/>
<path d="M404.759 256.996C403.098 256.039 401.753 256.806 401.742 258.709C401.803 259.748 402.107 260.758 402.632 261.657C403.156 262.555 403.885 263.318 404.759 263.882C406.421 264.839 407.766 264.071 407.777 262.158C407.715 261.121 407.409 260.113 406.885 259.216C406.361 258.319 405.633 257.559 404.759 256.996Z" fill="#455A64"/>
<path d="M384.611 265.984L386.114 263.408L384.159 262.168C383.814 261.995 383.429 261.921 383.045 261.952C382.662 261.984 382.294 262.12 381.982 262.346C381.112 262.915 380.387 263.68 379.866 264.581C379.346 265.481 379.044 266.491 378.986 267.529C378.95 267.91 379.018 268.292 379.183 268.637C379.347 268.981 379.603 269.275 379.922 269.485L381.846 270.704L383.433 267.992C383.928 267.388 384.325 266.711 384.611 265.984Z" fill="#37474F"/>
<path d="M383.942 263.545C385.603 262.588 386.948 263.355 386.959 265.258C386.902 266.297 386.601 267.308 386.081 268.208C385.56 269.109 384.834 269.874 383.963 270.441C382.302 271.398 380.956 270.63 380.945 268.728C381.002 267.689 381.303 266.678 381.823 265.778C382.344 264.877 383.07 264.112 383.942 263.545Z" fill="#455A64"/>
<path d="M363.522 255.819L365.025 253.243L363.07 252.002C362.727 251.832 362.344 251.759 361.962 251.79C361.581 251.822 361.215 251.957 360.904 252.181C360.031 252.747 359.303 253.511 358.783 254.412C358.262 255.313 357.962 256.325 357.908 257.364C357.872 257.744 357.94 258.127 358.104 258.472C358.269 258.816 358.525 259.109 358.844 259.32L360.757 260.539L362.345 257.827C362.843 257.226 363.241 256.547 363.522 255.819Z" fill="#37474F"/>
<path d="M362.863 253.431C364.514 252.475 365.87 253.242 365.87 255.145C365.816 256.183 365.517 257.193 364.998 258.094C364.479 258.995 363.755 259.76 362.885 260.328C361.223 261.285 359.867 260.517 359.867 258.614C359.921 257.575 360.221 256.563 360.742 255.662C361.263 254.761 361.99 253.997 362.863 253.431Z" fill="#455A64"/>
<path d="M406.101 253.81V257.522L386.547 246.956V241.836L406.101 253.81Z" fill="#E0E0E0"/>
<path d="M407.237 253.178L387.672 241.551L386.547 241.835L406.101 253.809L407.237 253.178Z" fill="#F5F5F5"/>
<path d="M407.237 256.88L406.102 257.522V253.81L407.237 253.18V256.88Z" fill="#F0F0F0"/>
<path d="M385.238 241.836L382.852 260.739V264.124L385.238 247.166V241.836Z" fill="#E0E0E0"/>
<path d="M382.846 260.748H381.469V264.123H382.846V260.748Z" fill="#F0F0F0"/>
<path d="M381.469 260.739L383.634 241.836H385.232L382.846 260.739H381.469Z" fill="#F5F5F5"/>
<path d="M362.086 250.267V253.81L382.418 245.547V241.205L362.086 250.267Z" fill="#E0E0E0"/>
<path d="M361.297 253.284L362.085 253.81V250.267L361.297 249.752V253.284Z" fill="#F0F0F0"/>
<path d="M364.503 249.185L362.085 250.268L361.297 249.753L382.418 240.238V241.205L364.503 249.185Z" fill="#F5F5F5"/>
<path d="M372.125 236.705V239.029L378.054 242.203L382.417 240.238V239.281L372.125 236.705Z" fill="#E0E0E0"/>
<path d="M372.125 236.705L372.598 236.516L382.417 238.639V239.281L372.125 236.705Z" fill="#F5F5F5"/>
<path d="M380.641 218.822H389.766V234.592C389.722 234.994 389.574 235.377 389.336 235.703C389.098 236.03 388.779 236.288 388.41 236.453C387.412 236.961 386.308 237.225 385.188 237.225C384.068 237.225 382.964 236.961 381.965 236.453C381.599 236.286 381.283 236.024 381.051 235.696C380.818 235.367 380.677 234.983 380.641 234.582V218.822Z" fill="#E0E0E0"/>
<path d="M439.451 147.784C438.894 147.794 438.339 147.709 437.811 147.531L437.181 147.342L437.675 145.523L436.434 144.031C435.52 143.729 434.58 143.511 433.627 143.379C430.736 142.99 427.529 143.652 425.553 145.807C423.576 147.962 423.208 150.938 423.124 153.776C422.977 158.654 423.576 163.512 423.871 168.39C424.332 173.264 423.955 178.182 422.756 182.929C421.379 187.608 418.551 192.023 414.241 194.378C412.54 195.274 410.726 195.936 408.847 196.344L393.94 184.569L373.386 178.104L346.462 191.918C345.76 192.331 345.166 192.904 344.727 193.59C342.625 196.744 342.993 202.442 346.693 204.555L383.858 224.288C385.087 224.941 386.456 225.289 387.848 225.304C389.24 225.319 390.615 224.999 391.858 224.372L417.889 211.189C419.536 210.353 420.99 209.182 422.156 207.749C423.322 206.317 424.175 204.656 424.659 202.873L439.567 147.805L439.451 147.784Z" fill="#37474F"/>
<path d="M346.461 191.887L373.386 178.072L393.939 184.538L408.847 196.313C407.69 196.597 406.513 196.828 405.356 197.059C402.27 197.507 399.288 198.496 396.546 199.982C393.897 201.611 391.763 204.397 391.742 207.509L392.688 214.868L391.857 215.278C390.616 215.909 389.241 216.232 387.848 216.219C386.455 216.206 385.086 215.859 383.857 215.205L346.693 195.472C345.9 195.009 345.227 194.369 344.727 193.6C345.16 192.899 345.754 192.311 346.461 191.887Z" fill="#455A64"/>
<path opacity="0.1" d="M346.461 191.887L373.386 178.072L393.939 184.538L408.847 196.313C407.69 196.597 406.513 196.828 405.356 197.059C402.27 197.507 399.288 198.496 396.546 199.982C393.897 201.611 391.763 204.397 391.742 207.509L392.688 214.868L391.857 215.278C390.616 215.909 389.241 216.232 387.848 216.219C386.455 216.206 385.086 215.859 383.857 215.205L346.693 195.472C345.9 195.009 345.227 194.369 344.727 193.6C345.16 192.899 345.754 192.311 346.461 191.887Z" fill="black"/>
<path d="M350.375 168.79C350.375 168.79 371.99 175.098 377.709 169.536C384.827 162.556 381.841 144.956 381 138.07C380.159 131.184 381 126.411 382.903 124.403C384.806 122.395 387.571 119.42 396.57 123.131C387.518 127.788 390.262 151.632 393.09 160.527C385.994 167.823 382.577 177.463 382.461 182.72C382.461 182.72 363.99 187.23 354.349 192.518L350.375 168.79Z" fill="#455A64"/>
<path opacity="0.1" d="M350.375 168.79C350.375 168.79 371.99 175.098 377.709 169.536C384.827 162.556 381.841 144.956 381 138.07C380.159 131.184 381 126.411 382.903 124.403C384.806 122.395 387.571 119.42 396.57 123.131C387.518 127.788 388.706 151.632 391.566 160.527C384.469 167.823 382.598 177.463 382.461 182.72C382.461 182.72 363.99 187.23 354.349 192.518L350.375 168.79Z" fill="white"/>
<path d="M354.293 192.518L349.867 190.131C349.867 177.978 348.079 179.177 344.726 174.362C341.372 169.547 346.513 166.634 350.371 168.748C354.23 170.861 355.807 177.284 354.293 192.518Z" fill="#455A64"/>
<path opacity="0.2" d="M354.293 192.518L349.867 190.131C349.867 177.978 348.079 179.177 344.726 174.362C341.372 169.547 346.513 166.634 350.371 168.748C354.23 170.861 355.807 177.284 354.293 192.518Z" fill="white"/>
<path d="M396.519 123.131C396.519 123.131 420.699 133.644 432.516 139.447L431.654 143.747L393.039 126.211C393.95 124.934 395.14 123.88 396.519 123.131Z" fill="#455A64"/>
<path opacity="0.1" d="M396.519 123.131C396.519 123.131 420.699 133.644 432.516 139.447L431.654 143.747L393.039 126.211C393.95 124.934 395.14 123.88 396.519 123.131Z" fill="white"/>
<path d="M389.156 158.845C386.706 151.244 387.211 134.002 393.035 126.254L431.65 143.79L422.83 188.019L408.847 196.356L382.406 182.72C382.543 177.464 382.059 166.109 389.156 158.845Z" fill="#455A64"/>
<path d="M413.055 167.707C412.403 167.329 411.867 167.634 411.867 168.391C411.888 168.8 412.006 169.198 412.21 169.552C412.415 169.907 412.701 170.208 413.045 170.43C413.696 170.809 414.233 170.514 414.233 169.757C414.213 169.347 414.097 168.947 413.892 168.59C413.687 168.234 413.4 167.931 413.055 167.707Z" fill="#455A64"/>
<path d="M407.081 164.196C406.419 163.817 405.893 164.122 405.883 164.879C405.907 165.288 406.028 165.686 406.234 166.04C406.44 166.395 406.727 166.695 407.071 166.919C407.723 167.297 408.259 167.003 408.259 166.246C408.237 165.836 408.119 165.436 407.915 165.08C407.71 164.724 407.425 164.421 407.081 164.196Z" fill="#455A64"/>
<path d="M401.102 160.684C400.45 160.306 399.914 160.61 399.914 161.367C399.937 161.776 400.055 162.173 400.259 162.528C400.464 162.882 400.749 163.183 401.092 163.407C401.754 163.785 402.28 163.491 402.29 162.734C402.266 162.323 402.146 161.924 401.94 161.568C401.734 161.211 401.447 160.909 401.102 160.684Z" fill="#455A64"/>
<path d="M395.125 157.172C394.463 156.794 393.938 157.099 393.938 157.856C393.958 158.265 394.076 158.663 394.281 159.017C394.485 159.372 394.771 159.673 395.115 159.895C395.767 160.274 396.303 159.979 396.303 159.222C396.281 158.812 396.163 158.413 395.959 158.057C395.754 157.701 395.469 157.398 395.125 157.172Z" fill="#455A64"/>
<g opacity="0.2">
<path opacity="0.2" d="M413.047 167.707C412.396 167.329 411.859 167.634 411.859 168.391C411.88 168.8 411.998 169.198 412.202 169.552C412.407 169.907 412.693 170.208 413.037 170.43C413.689 170.809 414.225 170.514 414.225 169.757C414.206 169.347 414.089 168.947 413.884 168.59C413.679 168.234 413.392 167.931 413.047 167.707Z" fill="white"/>
<path opacity="0.2" d="M407.081 164.196C406.419 163.817 405.893 164.122 405.883 164.879C405.907 165.288 406.028 165.686 406.234 166.04C406.44 166.395 406.727 166.695 407.071 166.919C407.723 167.297 408.259 167.003 408.259 166.246C408.237 165.836 408.119 165.436 407.915 165.08C407.71 164.724 407.425 164.421 407.081 164.196Z" fill="white"/>
<path opacity="0.2" d="M401.094 160.684C400.442 160.306 399.906 160.61 399.906 161.367C399.929 161.776 400.047 162.173 400.252 162.528C400.456 162.882 400.741 163.183 401.084 163.407C401.746 163.785 402.272 163.491 402.282 162.734C402.259 162.323 402.139 161.924 401.932 161.568C401.726 161.211 401.439 160.909 401.094 160.684Z" fill="white"/>
<path opacity="0.2" d="M395.125 157.172C394.463 156.794 393.938 157.099 393.938 157.856C393.958 158.265 394.076 158.663 394.281 159.017C394.485 159.372 394.771 159.673 395.115 159.895C395.767 160.274 396.303 159.979 396.303 159.222C396.281 158.812 396.163 158.413 395.959 158.057C395.754 157.701 395.469 157.398 395.125 157.172Z" fill="white"/>
</g>
<path d="M396.547 199.982C399.289 198.496 402.271 197.507 405.357 197.059C406.514 196.828 407.691 196.596 408.847 196.313C410.726 195.904 412.54 195.243 414.241 194.347C418.509 191.992 421.379 187.576 422.756 182.898C423.953 178.157 424.33 173.247 423.871 168.379C423.576 163.501 422.977 158.644 423.124 153.766C423.208 150.927 423.64 147.889 425.553 145.797C427.466 143.705 430.736 142.979 433.627 143.368C434.58 143.501 435.52 143.719 436.434 144.02L437.717 145.523L437.223 147.342L424.659 193.737C423.789 196.959 421.726 199.729 418.888 201.485C418.562 201.685 418.236 201.885 417.889 202.053L392.657 214.826L391.711 207.467C391.764 204.397 393.898 201.611 396.547 199.982Z" fill="#37474F"/>
<path d="M396.516 194.988C405.736 192.36 414.788 192.023 418.131 185.4C421.474 178.777 421.705 169.63 420.034 153.745C419.827 151.697 419.876 149.631 420.181 147.595C421.169 141.655 424.744 139.11 428.854 139.047C432.923 138.976 436.866 140.458 439.883 143.19C440.468 143.678 440.935 144.293 441.249 144.987C441.396 145.33 441.448 145.705 441.402 146.074C441.356 146.444 441.212 146.794 440.986 147.09C440.613 147.478 440.105 147.707 439.567 147.731H439.452C438.894 147.742 438.34 147.657 437.811 147.479L437.181 147.29C436.056 146.932 434.941 146.512 433.795 146.238C432.423 145.834 430.963 145.834 429.59 146.238C428.945 146.492 428.369 146.893 427.907 147.41C427.445 147.927 427.11 148.544 426.93 149.214C423.04 161.914 427.982 175.56 423.598 186.01C420.023 195.545 407.66 199.509 398.944 202.337C399.793 202.002 400.543 201.456 401.12 200.749C401.555 200.077 401.756 199.281 401.694 198.483C401.631 197.685 401.308 196.93 400.773 196.334C400.226 195.781 399.553 195.369 398.811 195.135C398.069 194.9 397.281 194.85 396.516 194.988Z" fill="#455A64"/>
<path opacity="0.1" d="M396.516 194.988C405.736 192.36 414.788 192.023 418.131 185.4C421.474 178.777 421.705 169.63 420.034 153.745C419.827 151.697 419.876 149.631 420.181 147.595C421.169 141.655 424.744 139.11 428.854 139.047C432.923 138.976 436.866 140.458 439.883 143.19C440.468 143.678 440.935 144.293 441.249 144.987C441.396 145.33 441.448 145.705 441.402 146.074C441.356 146.444 441.212 146.794 440.986 147.09C440.613 147.478 440.105 147.707 439.567 147.731H439.452C438.894 147.742 438.34 147.657 437.811 147.479L437.181 147.29C436.056 146.932 434.941 146.512 433.795 146.238C432.423 145.834 430.963 145.834 429.59 146.238C428.945 146.492 428.369 146.893 427.907 147.41C427.445 147.927 427.11 148.544 426.93 149.214C423.04 161.914 427.982 175.56 423.598 186.01C420.023 195.545 407.66 199.509 398.944 202.337C399.793 202.002 400.543 201.456 401.12 200.749C401.555 200.077 401.756 199.281 401.694 198.483C401.631 197.685 401.308 196.93 400.773 196.334C400.226 195.781 399.553 195.369 398.811 195.135C398.069 194.9 397.281 194.85 396.516 194.988Z" fill="white"/>
<path d="M390.121 201.517C390.661 200.013 391.458 198.615 392.476 197.385C393.509 196.148 394.934 195.302 396.513 194.988C397.3 194.843 398.11 194.897 398.87 195.144C399.63 195.392 400.316 195.826 400.866 196.407C401.4 197.003 401.723 197.758 401.786 198.556C401.849 199.354 401.647 200.151 401.213 200.823C400.635 201.529 399.886 202.076 399.037 202.41C398.341 202.703 397.664 203.036 397.008 203.409C395.287 204.57 394.049 206.32 393.528 208.329C393.01 210.321 392.738 212.369 392.718 214.427V214.826L388.397 212.429C388.198 208.711 388.786 204.992 390.121 201.517Z" fill="#455A64"/>
<path opacity="0.2" d="M390.121 201.517C390.661 200.013 391.458 198.615 392.476 197.385C393.509 196.148 394.934 195.302 396.513 194.988C397.3 194.843 398.11 194.897 398.87 195.144C399.63 195.392 400.316 195.826 400.866 196.407C401.4 197.003 401.723 197.758 401.786 198.556C401.849 199.354 401.647 200.151 401.213 200.823C400.635 201.529 399.886 202.076 399.037 202.41C398.341 202.703 397.664 203.036 397.008 203.409C395.287 204.57 394.049 206.32 393.528 208.329C393.01 210.321 392.738 212.369 392.718 214.427V214.826L388.397 212.429C388.198 208.711 388.786 204.992 390.121 201.517Z" fill="white"/>
<path d="M448.545 159.212L447.851 158.455L406.523 175.15L410.371 189.08L411.065 189.826L452.382 173.142L448.545 159.212Z" fill="#0276F9"/>
<path d="M420.518 182.146C419.943 182.365 419.425 182.441 418.963 182.375C418.507 182.306 418.11 182.117 417.771 181.811C417.432 181.504 417.156 181.101 416.944 180.602C416.84 180.349 416.732 180.075 416.62 179.782C416.508 179.488 416.404 179.206 416.307 178.935C416.133 178.422 416.07 177.939 416.118 177.484C416.166 177.029 416.337 176.624 416.63 176.268C416.93 175.911 417.367 175.622 417.941 175.403C418.372 175.238 418.773 175.153 419.143 175.148C419.513 175.142 419.842 175.199 420.13 175.318C420.425 175.434 420.677 175.595 420.884 175.802C421.09 176.003 421.249 176.232 421.362 176.489C421.389 176.543 421.388 176.597 421.359 176.651C421.336 176.703 421.296 176.74 421.24 176.761L420.725 176.958C420.669 176.979 420.613 176.983 420.557 176.968C420.508 176.951 420.458 176.906 420.409 176.832C420.116 176.385 419.789 176.128 419.426 176.059C419.07 175.987 418.673 176.035 418.236 176.202C417.737 176.393 417.395 176.688 417.211 177.087C417.025 177.481 417.039 177.994 417.253 178.628C417.429 179.147 417.63 179.671 417.854 180.201C418.117 180.816 418.45 181.211 418.854 181.386C419.254 181.555 419.705 181.544 420.204 181.353C420.641 181.186 420.969 180.957 421.187 180.667C421.411 180.373 421.483 179.963 421.403 179.435C421.391 179.347 421.398 179.28 421.423 179.235C421.455 179.187 421.499 179.152 421.555 179.131L422.07 178.934C422.126 178.912 422.18 178.913 422.232 178.936C422.29 178.957 422.327 178.997 422.342 179.055C422.43 179.322 422.465 179.602 422.448 179.895C422.429 180.181 422.348 180.466 422.206 180.749C422.07 181.03 421.862 181.292 421.583 181.535C421.303 181.777 420.948 181.981 420.518 182.146ZM425.631 180.192C425.319 180.311 425.011 180.357 424.707 180.33C424.404 180.303 424.133 180.213 423.896 180.061C423.659 179.908 423.489 179.698 423.386 179.429C423.222 178.998 423.265 178.588 423.517 178.198C423.769 177.809 424.161 177.466 424.691 177.17L426.012 176.441L425.908 176.169C425.793 175.869 425.617 175.669 425.377 175.567C425.144 175.463 424.834 175.484 424.447 175.632C424.166 175.74 423.96 175.883 423.828 176.062C423.702 176.239 423.639 176.428 423.637 176.629C423.635 176.737 423.587 176.809 423.494 176.844L423.072 177.005C423.004 177.032 422.943 177.033 422.892 177.01C422.844 176.978 422.809 176.934 422.787 176.878C422.752 176.785 422.742 176.656 422.758 176.492C422.781 176.326 422.842 176.149 422.941 175.961C423.041 175.772 423.19 175.59 423.387 175.415C423.589 175.23 423.858 175.074 424.195 174.945C424.57 174.802 424.904 174.731 425.199 174.734C425.49 174.729 425.739 174.781 425.945 174.889C426.157 174.994 426.333 175.137 426.474 175.319C426.622 175.499 426.736 175.695 426.817 175.908L427.976 178.942C428 179.004 427.998 179.066 427.971 179.126C427.948 179.178 427.906 179.216 427.843 179.24L427.412 179.404C427.344 179.43 427.283 179.432 427.232 179.409C427.177 179.379 427.138 179.334 427.115 179.271L426.961 178.868C426.923 179.012 426.856 179.166 426.762 179.331C426.665 179.489 426.528 179.646 426.35 179.799C426.171 179.947 425.931 180.078 425.631 180.192ZM425.56 179.414C425.815 179.317 426.029 179.174 426.201 178.987C426.37 178.793 426.47 178.559 426.501 178.282C426.537 178.003 426.489 177.689 426.355 177.34L426.255 177.077L425.229 177.652C424.81 177.883 424.517 178.117 424.349 178.353C424.179 178.582 424.137 178.81 424.223 179.034C424.29 179.209 424.396 179.337 424.541 179.417C424.69 179.489 424.853 179.523 425.031 179.52C425.215 179.514 425.391 179.479 425.56 179.414ZM429.62 178.561C429.558 178.585 429.498 178.586 429.44 178.565C429.385 178.536 429.346 178.49 429.323 178.428L427.63 173.998C427.606 173.935 427.605 173.875 427.626 173.817C427.653 173.757 427.697 173.715 427.76 173.691L428.19 173.526C428.253 173.502 428.314 173.504 428.375 173.531C428.435 173.558 428.477 173.603 428.501 173.665L428.659 174.077C428.702 173.817 428.813 173.592 428.991 173.403C429.169 173.213 429.411 173.06 429.717 172.943L430.092 172.8C430.154 172.776 430.212 172.779 430.267 172.808C430.318 172.831 430.356 172.874 430.38 172.936L430.527 173.32C430.551 173.383 430.551 173.44 430.528 173.492C430.505 173.544 430.462 173.581 430.399 173.605L429.837 173.82C429.5 173.949 429.273 174.15 429.156 174.424C429.036 174.691 429.041 174.994 429.17 175.331L430.222 178.084C430.245 178.147 430.244 178.208 430.217 178.268C430.187 178.322 430.142 178.361 430.079 178.385L429.62 178.561ZM434.846 176.672C434.202 176.917 433.615 176.916 433.084 176.668C432.551 176.414 432.134 175.951 431.834 175.279C431.797 175.2 431.754 175.098 431.707 174.973C431.657 174.842 431.619 174.735 431.594 174.651C431.45 174.198 431.405 173.772 431.46 173.372C431.512 172.965 431.66 172.612 431.903 172.312C432.152 172.009 432.489 171.777 432.913 171.614C433.388 171.433 433.823 171.382 434.217 171.46C434.618 171.535 434.973 171.725 435.283 172.029C435.592 172.333 435.841 172.732 436.029 173.225L436.09 173.384C436.116 173.453 436.115 173.514 436.085 173.569C436.062 173.62 436.02 173.658 435.957 173.682L432.717 174.92C432.719 174.926 432.724 174.939 432.731 174.957C432.738 174.976 432.744 174.992 432.749 175.004C432.859 175.255 433.007 175.474 433.193 175.661C433.376 175.841 433.588 175.964 433.828 176.03C434.068 176.096 434.319 176.079 434.581 175.979C434.806 175.893 434.98 175.787 435.103 175.661C435.227 175.535 435.32 175.414 435.383 175.297C435.443 175.173 435.48 175.084 435.495 175.028C435.52 174.926 435.546 174.862 435.572 174.838C435.596 174.807 435.643 174.779 435.711 174.752L436.161 174.581C436.223 174.557 436.28 174.557 436.332 174.58C436.388 174.594 436.425 174.634 436.442 174.699C436.472 174.795 436.466 174.929 436.425 175.102C436.381 175.269 436.297 175.452 436.172 175.65C436.048 175.848 435.877 176.038 435.661 176.221C435.442 176.397 435.17 176.548 434.846 176.672ZM432.47 174.274L435.036 173.293L435.025 173.265C434.918 172.984 434.769 172.755 434.58 172.577C434.396 172.397 434.184 172.281 433.943 172.23C433.699 172.173 433.443 172.195 433.175 172.298C432.906 172.401 432.7 172.554 432.557 172.76C432.417 172.956 432.339 173.182 432.323 173.439C432.306 173.696 432.352 173.965 432.459 174.246L432.47 174.274ZM440.086 174.67C439.443 174.915 438.856 174.914 438.325 174.666C437.791 174.412 437.375 173.949 437.075 173.276C437.037 173.198 436.995 173.096 436.947 172.971C436.897 172.84 436.86 172.733 436.835 172.649C436.691 172.196 436.646 171.77 436.7 171.37C436.753 170.963 436.9 170.61 437.143 170.31C437.393 170.007 437.729 169.774 438.154 169.612C438.628 169.431 439.063 169.379 439.458 169.458C439.859 169.533 440.214 169.723 440.523 170.027C440.833 170.331 441.082 170.73 441.27 171.223L441.331 171.382C441.357 171.451 441.355 171.512 441.326 171.566C441.303 171.618 441.26 171.656 441.198 171.68L437.957 172.918C437.96 172.924 437.964 172.937 437.972 172.955C437.979 172.974 437.985 172.99 437.989 173.002C438.1 173.253 438.248 173.472 438.434 173.659C438.617 173.839 438.829 173.962 439.068 174.028C439.308 174.094 439.559 174.077 439.821 173.976C440.046 173.891 440.22 173.785 440.344 173.659C440.468 173.533 440.561 173.411 440.623 173.294C440.684 173.171 440.721 173.082 440.735 173.026C440.761 172.924 440.786 172.86 440.813 172.836C440.837 172.805 440.883 172.777 440.952 172.75L441.402 172.579C441.464 172.555 441.521 172.554 441.573 172.578C441.628 172.592 441.665 172.632 441.683 172.697C441.712 172.793 441.706 172.927 441.665 173.1C441.622 173.267 441.538 173.45 441.413 173.648C441.288 173.845 441.118 174.036 440.901 174.219C440.682 174.395 440.411 174.545 440.086 174.67ZM437.71 172.272L440.276 171.291L440.266 171.263C440.158 170.982 440.01 170.753 439.82 170.575C439.637 170.394 439.425 170.279 439.183 170.228C438.94 170.171 438.684 170.193 438.415 170.296C438.147 170.398 437.941 170.552 437.797 170.757C437.658 170.954 437.58 171.18 437.563 171.437C437.547 171.694 437.592 171.963 437.7 172.244L437.71 172.272ZM443.568 173.232C443.505 173.256 443.445 173.257 443.387 173.237C443.333 173.207 443.294 173.161 443.27 173.099L441.578 168.669C441.554 168.607 441.552 168.546 441.573 168.488C441.6 168.428 441.645 168.386 441.707 168.362L442.138 168.197C442.2 168.174 442.262 168.175 442.322 168.202C442.383 168.229 442.425 168.274 442.449 168.336L442.606 168.748C442.65 168.488 442.761 168.264 442.939 168.074C443.117 167.884 443.359 167.731 443.664 167.614L444.039 167.471C444.102 167.447 444.16 167.45 444.214 167.479C444.266 167.503 444.304 167.545 444.327 167.608L444.474 167.992C444.498 168.054 444.498 168.111 444.475 168.163C444.452 168.215 444.409 168.253 444.347 168.277L443.785 168.491C443.448 168.62 443.221 168.821 443.103 169.095C442.984 169.363 442.988 169.665 443.117 170.002L444.169 172.755C444.193 172.818 444.191 172.879 444.164 172.94C444.135 172.994 444.089 173.033 444.027 173.057L443.568 173.232Z" fill="white"/>
<path opacity="0.2" d="M406.523 175.15L410.371 189.08L411.065 189.827L407.217 175.907L406.523 175.15Z" fill="black"/>
<path opacity="0.2" d="M448.545 159.212L447.851 158.455L406.523 175.15L407.217 175.907L448.545 159.212Z" fill="white"/>
<path d="M427.885 136.672H427.822C427.542 136.689 427.264 136.731 426.991 136.798C421.535 138.186 416.363 150.802 412.052 173.205C412.045 173.246 412.045 173.288 412.054 173.328C412.062 173.369 412.079 173.407 412.102 173.442C412.126 173.476 412.156 173.505 412.19 173.527C412.225 173.55 412.264 173.566 412.305 173.573H412.368C412.442 173.572 412.515 173.546 412.572 173.498C412.629 173.45 412.669 173.384 412.683 173.31C415.227 160.064 420.62 137.629 427.854 137.292H428.074C428.396 137.366 428.698 137.509 428.957 137.713L430.629 138.512C429.599 137.376 428.653 136.672 427.885 136.672Z" fill="#E6E6E6"/>
</svg>
